<svg width="20.000977" height="20.000488" viewBox="0 0 20.001 20.0005" fill="none" xmlns="http://www.w3.org/2000/svg" xmlns:xlink="http://www.w3.org/1999/xlink">
	<desc>
			Created with Pixso.
	</desc>
	<defs/>
	<path id="Vector" d="M11.02 0C12.15 0 12.72 0 13.21 0.02L13.41 0.02C13.63 0.03 13.85 0.04 14.12 0.06C15.18 0.1 15.91 0.27 16.55 0.52C17.21 0.77 17.76 1.12 18.32 1.67C18.83 2.17 19.22 2.78 19.47 3.45C19.72 4.08 19.89 4.81 19.94 5.87C19.95 6.14 19.96 6.36 19.97 6.58L19.97 6.78C19.99 7.27 19.99 7.84 19.99 8.97L20 9.71L20 11.02C20 11.75 19.99 12.48 19.97 13.21L19.97 13.41C19.96 13.63 19.95 13.85 19.94 14.12C19.89 15.18 19.72 15.91 19.47 16.54C19.22 17.21 18.83 17.82 18.32 18.32C17.82 18.83 17.21 19.22 16.55 19.47C15.91 19.72 15.18 19.89 14.12 19.93L13.41 19.97L13.21 19.97C12.72 19.99 12.15 19.99 11.02 19.99L10.28 20L8.97 20C8.24 20 7.51 19.99 6.78 19.97L6.59 19.97C6.35 19.96 6.11 19.95 5.87 19.93C4.81 19.89 4.08 19.72 3.45 19.47C2.78 19.22 2.17 18.83 1.67 18.32C1.17 17.82 0.77 17.21 0.52 16.54C0.27 15.91 0.11 15.18 0.06 14.12L0.03 13.41L0.02 13.21C0 12.48 -0.01 11.75 0 11.02L0 8.97C-0.01 8.24 0 7.51 0.02 6.78L0.02 6.58C0.03 6.36 0.04 6.14 0.05 5.87C0.1 4.81 0.27 4.08 0.52 3.45C0.77 2.78 1.17 2.17 1.68 1.67C2.17 1.16 2.78 0.77 3.45 0.52C4.08 0.27 4.81 0.1 5.87 0.06C6.14 0.04 6.36 0.03 6.59 0.02L6.78 0.02C7.51 0 8.24 -0.01 8.97 0L11.02 0ZM10 5C8.67 5 7.4 5.52 6.46 6.46C5.52 7.4 5 8.67 5 10C5 11.32 5.52 12.59 6.46 13.53C7.4 14.47 8.67 15 10 15C11.32 15 12.59 14.47 13.53 13.53C14.47 12.59 15 11.32 15 10C15 8.67 14.47 7.4 13.53 6.46C12.59 5.52 11.32 5 10 5ZM10 7C10.39 7 10.78 7.07 11.14 7.22C11.51 7.37 11.84 7.59 12.12 7.87C12.4 8.15 12.62 8.48 12.77 8.85C12.92 9.21 13 9.6 13 9.99C13 10.39 12.92 10.78 12.77 11.14C12.62 11.51 12.4 11.84 12.12 12.12C11.84 12.39 11.51 12.62 11.14 12.77C10.78 12.92 10.39 13 10 13C9.2 13 8.44 12.68 7.88 12.12C7.31 11.55 7 10.79 7 10C7 9.2 7.31 8.44 7.88 7.87C8.44 7.31 9.2 7 10 7L10 7ZM15.25 3.5C14.92 3.5 14.6 3.63 14.36 3.86C14.13 4.1 14 4.41 14 4.75C14 5.08 14.13 5.39 14.36 5.63C14.6 5.86 14.92 6 15.25 6C15.58 6 15.9 5.86 16.13 5.63C16.36 5.39 16.5 5.08 16.5 4.75C16.5 4.41 16.36 4.1 16.13 3.86C15.9 3.63 15.58 3.5 15.25 3.5Z" fill="#FFFFFF" fill-opacity="1.000000" fill-rule="nonzero"/>
</svg>
