<svg width="21.990234" height="21.989990" viewBox="0 0 21.9902 21.99" fill="none" xmlns="http://www.w3.org/2000/svg" xmlns:xlink="http://www.w3.org/1999/xlink">
	<desc>
			Created with Pixso.
	</desc>
	<defs/>
	<path id="Vector" d="M15.71 0.75L6.27 0.75C3.22 0.75 0.75 3.22 0.75 6.27L0.75 15.71C0.75 18.76 3.22 21.24 6.27 21.24L15.71 21.24C18.76 21.24 21.24 18.76 21.24 15.71L21.24 6.27C21.24 3.22 18.76 0.75 15.71 0.75Z" fill="#FFFFFF" fill-opacity="0" fill-rule="nonzero"/>
	<path id="Vector" d="M6.27 0.75C3.22 0.75 0.75 3.22 0.75 6.27L0.75 15.71C0.75 18.76 3.22 21.24 6.27 21.24L15.71 21.24C18.76 21.24 21.24 18.76 21.24 15.71L21.24 6.27C21.24 3.22 18.76 0.75 15.71 0.75L6.27 0.75Z" stroke="#1D1D1D" stroke-opacity="1.000000" stroke-width="1.500000"/>
	<path id="Vector" d="M10.99 15.94C8.26 15.94 6.04 13.72 6.04 10.99C6.04 8.26 8.26 6.04 10.99 6.04C13.72 6.04 15.94 8.26 15.94 10.99C15.94 13.72 13.72 15.94 10.99 15.94Z" stroke="#1D1D1D" stroke-opacity="1.000000" stroke-width="1.500000"/>
	<path id="Vector" d="M18.06 4.98C18.06 5.57 17.58 6.04 17 6.04C16.41 6.04 15.94 5.57 15.94 4.98C15.94 4.4 16.41 3.92 17 3.92C17.58 3.92 18.06 4.4 18.06 4.98Z" fill="#1D1D1D" fill-opacity="1.000000" fill-rule="evenodd"/>
</svg>
