<svg width="20.187500" height="14.437500" viewBox="0 0 20.1875 14.4375" fill="none" xmlns="http://www.w3.org/2000/svg" xmlns:xlink="http://www.w3.org/1999/xlink">
	<desc>
			Created with Pixso.
	</desc>
	<defs/>
	<path id="Vector" d="M19.43 12.25C19.43 12.63 19.28 12.99 19.01 13.26C18.74 13.53 18.38 13.68 18 13.68L2.18 13.68C1.8 13.68 1.44 13.53 1.17 13.26C0.9 12.99 0.75 12.63 0.75 12.25L0.75 2.18C0.75 1.8 0.9 1.44 1.17 1.17C1.44 0.9 1.8 0.75 2.18 0.75L18 0.75C18.38 0.75 18.74 0.9 19.01 1.17C19.28 1.44 19.43 1.8 19.43 2.18L19.43 12.25ZM19.43 2.18L10.91 8.08C10.67 8.25 10.38 8.34 10.09 8.34C9.8 8.34 9.51 8.25 9.27 8.08L0.75 2.18" stroke="#B0B0B0" stroke-opacity="1.000000" stroke-width="1.500000" stroke-linejoin="round"/>
</svg>
