<svg width="84.000000" height="84.000000" viewBox="0 0 84 84" fill="none" xmlns="http://www.w3.org/2000/svg" xmlns:xlink="http://www.w3.org/1999/xlink">
	<desc>
			Created with Pixso.
	</desc>
	<defs>
		<filter id="filter_60_803_dd" x="0.000000" y="0.000000" width="84.000000" height="84.000000" filterUnits="userSpaceOnUse" color-interpolation-filters="sRGB">
			<feFlood flood-opacity="0" result="BackgroundImageFix"/>
			<feColorMatrix in="SourceAlpha" type="matrix" values="0 0 0 0 0 0 0 0 0 0 0 0 0 0 0 0 0 0 127 0" result="hardAlpha"/>
			<feOffset dx="0" dy="0"/>
			<feGaussianBlur stdDeviation="3.33333"/>
			<feComposite in2="hardAlpha" operator="out" k2="-1" k3="1"/>
			<feColorMatrix type="matrix" values="0 0 0 0 0 0 0 0 0 0 0 0 0 0 0 0 0 0 0.15 0"/>
			<feBlend mode="normal" in2="BackgroundImageFix" result="effect_dropShadow_1"/>
			<feBlend mode="normal" in="SourceGraphic" in2="effect_dropShadow_1" result="shape"/>
		</filter>
		<clipPath id="clip60_803">
			<rect id="ic:baseline-place" rx="-0.500000" width="63.000000" height="63.000000" transform="translate(10.500000 10.500000)" fill="white" fill-opacity="0"/>
		</clipPath>
	</defs>
	<g filter="url(#filter_60_803_dd)">
		<rect id="ic:baseline-place" rx="-0.500000" width="63.000000" height="63.000000" transform="translate(10.500000 10.500000)" fill="#FFFFFF" fill-opacity="0"/>
		<g clip-path="url(#clip60_803)">
			<circle id="Ellipse 12" cx="42.000000" cy="34.000000" r="8.000000" fill="#FFFFFF" fill-opacity="1.000000"/>
			<path id="Vector" d="M42 15.33C31.67 15.33 23.33 23.68 23.33 34C23.33 48 42 68.66 42 68.66C42 68.66 60.66 48 60.66 34C60.66 23.68 52.31 15.33 42 15.33ZM42 40.66C40.23 40.66 38.53 39.96 37.28 38.71C36.03 37.46 35.33 35.76 35.33 34C35.33 32.23 36.03 30.53 37.28 29.28C38.53 28.03 40.23 27.33 42 27.33C43.76 27.33 45.46 28.03 46.71 29.28C47.96 30.53 48.66 32.23 48.66 34C48.66 35.76 47.96 37.46 46.71 38.71C45.46 39.96 43.76 40.66 42 40.66Z" fill="#D00000" fill-opacity="1.000000" fill-rule="nonzero"/>
		</g>
	</g>
</svg>
