<svg width="23.252686" height="21.002930" viewBox="0 0 23.2527 21.0029" fill="none" xmlns="http://www.w3.org/2000/svg" xmlns:xlink="http://www.w3.org/1999/xlink">
	<desc>
			Created with Pixso.
	</desc>
	<defs/>
	<path id="Vector" d="M21.24 12.28C21.36 12.24 21.47 12.17 21.55 12.08C21.64 11.98 21.7 11.87 21.73 11.74C21.76 11.62 21.75 11.49 21.72 11.37C21.68 11.24 21.62 11.13 21.53 11.04L10.7 0.21C10.56 0.07 10.37 0 10.17 0C9.97 0 9.78 0.07 9.64 0.21L5.83 4.03L3.53 1.71C3.39 1.57 3.2 1.5 3 1.5C2.8 1.5 2.61 1.57 2.47 1.71C2.33 1.86 2.25 2.05 2.25 2.25C2.25 2.44 2.33 2.64 2.47 2.78L4.77 5.08L0.65 9.2C0.23 9.62 0 10.19 0 10.79C0 11.39 0.23 11.96 0.65 12.38L8.61 20.34C9.03 20.76 9.61 21 10.2 21C10.8 21 11.37 20.76 11.79 20.34L19.15 12.98L21.24 12.28ZM18.22 11.79L10.73 19.28C10.59 19.42 10.4 19.5 10.2 19.5C10 19.5 9.81 19.42 9.67 19.28L1.72 11.32C1.58 11.18 1.5 10.99 1.5 10.79C1.5 10.59 1.58 10.4 1.72 10.26L5.83 6.14L8.56 8.87C8.26 9.43 8.17 10.07 8.31 10.69C8.45 11.3 8.8 11.85 9.31 12.23C9.81 12.6 10.44 12.78 11.06 12.74C11.69 12.69 12.28 12.42 12.73 11.98C13.18 11.53 13.45 10.94 13.49 10.31C13.54 9.68 13.35 9.06 12.98 8.55C12.6 8.04 12.05 7.69 11.44 7.56C10.82 7.42 10.18 7.51 9.62 7.81L6.89 5.08L10.18 1.81L19.61 11.25L18.51 11.61C18.4 11.65 18.3 11.71 18.22 11.79ZM10.08 9.33C10.29 9.07 10.59 8.91 10.92 8.89C11.25 8.86 11.57 8.96 11.83 9.17C12.08 9.38 12.24 9.68 12.27 10.01C12.3 10.34 12.2 10.67 11.98 10.92C11.77 11.17 11.47 11.33 11.14 11.36C10.81 11.39 10.49 11.29 10.24 11.08C9.98 10.87 9.82 10.57 9.79 10.24C9.76 9.91 9.86 9.58 10.07 9.33C10.07 9.33 10.08 9.33 10.08 9.33ZM21.62 14.58C21.55 14.47 21.46 14.39 21.35 14.33C21.24 14.27 21.12 14.24 21 14.24C20.87 14.24 20.75 14.27 20.64 14.33C20.53 14.39 20.44 14.47 20.37 14.58C20.21 14.83 18.75 17.07 18.75 18.75C18.75 19.34 18.98 19.91 19.41 20.34C19.83 20.76 20.4 21 21 21C21.59 21 22.17 20.76 22.59 20.34C23.01 19.91 23.25 19.34 23.25 18.75C23.25 17.07 21.79 14.83 21.62 14.58L21.62 14.58ZM21 19.5C20.8 19.5 20.61 19.42 20.47 19.28C20.33 19.13 20.25 18.94 20.25 18.75C20.25 18.11 20.62 17.22 21 16.49C21.37 17.22 21.75 18.11 21.75 18.75C21.75 18.94 21.67 19.13 21.53 19.28C21.39 19.42 21.2 19.5 21 19.5Z" fill="#B0B0B0" fill-opacity="1.000000" fill-rule="nonzero"/>
</svg>
