<?xml version="1.0" encoding="utf-8"?><svg viewBox="0 0 25.25 24.578" xmlns="http://www.w3.org/2000/svg" xmlns:xlink="http://www.w3.org/1999/xlink"><style>:root>svg{display:none}:root>svg:target{display:block}</style><svg fill="none" viewBox="0 0 24.578 24.578" id="vector-01" xmlns="http://www.w3.org/2000/svg"><path d="M3.99 12.71 6.7 9.99l1.85-1.85c.39-.39.67-.88.81-1.41.14-.54.12-1.1-.03-1.63-.27-.89-.46-1.81-.55-2.74-.1-.93-.91-1.61-1.84-1.61H2.62C1.51.75.66 1.7.75 2.81c.99 11.14 9.86 20.02 21.01 21 1.1.1 2.06-.75 2.06-1.86V18.1c0-1.41-.69-2.21-1.61-2.31-.93-.1-1.85-.28-2.74-.55-.53-.16-1.09-.17-1.63-.03-.54.14-1.03.42-1.42.81l-1.84 1.85A19.599 19.599 0 0 1 6.7 9.99m5.16 10.59 2.72-2.71" stroke="#1D1D1D" stroke-width="1.5" stroke-linejoin="round" stroke-linecap="round"/></svg><svg fill="none" viewBox="0 0 25.19 17.901" id="vector-02" xmlns="http://www.w3.org/2000/svg"><path d="M24.43 15.32a1.824 1.824 0 0 1-1.82 1.83H2.57a1.824 1.824 0 0 1-1.82-1.83V2.57c0-.49.19-.95.53-1.29.34-.34.8-.53 1.29-.53h20.04c.49 0 .95.19 1.29.53.34.34.53.8.53 1.29v12.75Zm0-12.75-10.8 7.48a1.848 1.848 0 0 1-2.08 0L.75 2.57" stroke="#1D1D1D" stroke-width="1.5" stroke-linejoin="round"/></svg><svg fill="none" viewBox="0 0 25.25 20.25" id="vector-03" xmlns="http://www.w3.org/2000/svg"><path d="m.75 10.12 8.75 1.25 11.87 8.13L24.5.75.75 10.12ZM24.5.75l-15 10.62m0 0v6.88l4.06-4.1" stroke="#1D1D1D" stroke-width="1.5" stroke-linejoin="round" stroke-linecap="round"/></svg><svg fill="none" viewBox="0 0 21.99 21.99" id="vector-04" xmlns="http://www.w3.org/2000/svg"><path d="M15.71.75H6.27C3.22.75.75 3.22.75 6.27v9.44c0 3.05 2.47 5.53 5.52 5.53h9.44c3.05 0 5.53-2.48 5.53-5.53V6.27c0-3.05-2.48-5.52-5.53-5.52Z" fill="none"/><path d="M6.27.75C3.22.75.75 3.22.75 6.27v9.44c0 3.05 2.47 5.53 5.52 5.53h9.44c3.05 0 5.53-2.48 5.53-5.53V6.27c0-3.05-2.48-5.52-5.53-5.52H6.27Z" stroke="#1D1D1D" stroke-width="1.5"/><path d="M10.99 15.94c-2.73 0-4.95-2.22-4.95-4.95s2.22-4.95 4.95-4.95 4.95 2.22 4.95 4.95-2.22 4.95-4.95 4.95Z" stroke="#1D1D1D" stroke-width="1.5"/><path d="M18.06 4.98A1.06 1.06 0 1 1 17 3.92c.58 0 1.06.48 1.06 1.06Z" fill="#1D1D1D" fill-rule="evenodd"/></svg></svg>