<svg width="22.125000" height="17.625000" viewBox="0 0 22.125 17.625" fill="none" xmlns="http://www.w3.org/2000/svg" xmlns:xlink="http://www.w3.org/1999/xlink">
	<desc>
			Created with Pixso.
	</desc>
	<defs/>
	<path id="Vector" d="M20.81 3.75L19.12 3.75L19.12 1.31C19.12 0.96 18.98 0.63 18.74 0.38C18.49 0.13 18.16 0 17.81 0L3.56 0C3.21 0 2.88 0.13 2.63 0.38C2.38 0.63 2.25 0.96 2.25 1.31L2.25 3.75L0.56 3.75C0.41 3.75 0.27 3.8 0.16 3.91C0.05 4.02 0 4.16 0 4.31C0 4.46 0.05 4.6 0.16 4.71C0.27 4.81 0.41 4.87 0.56 4.87L2.25 4.87L2.25 7.31C2.25 7.66 2.38 7.99 2.63 8.24C2.88 8.48 3.21 8.62 3.56 8.62L17.81 8.62C18.16 8.62 18.49 8.48 18.74 8.24C18.98 7.99 19.12 7.66 19.12 7.31L19.12 4.87L20.81 4.87C20.86 4.87 20.9 4.89 20.94 4.92C20.98 4.96 21 5.01 21 5.06L21 9.75C21 9.79 20.98 9.83 20.96 9.86C20.93 9.89 20.9 9.91 20.86 9.92L11.45 12.61C11.17 12.69 10.93 12.86 10.76 13.08C10.59 13.31 10.5 13.59 10.5 13.87L10.5 17.06C10.5 17.21 10.55 17.35 10.66 17.46C10.77 17.56 10.91 17.62 11.06 17.62C11.21 17.62 11.35 17.56 11.46 17.46C11.56 17.35 11.62 17.21 11.62 17.06L11.62 13.87C11.62 13.83 11.63 13.79 11.66 13.76C11.68 13.72 11.72 13.7 11.76 13.69L21.17 11C21.44 10.92 21.68 10.76 21.85 10.53C22.02 10.3 22.12 10.03 22.12 9.75L22.12 5.06C22.12 4.71 21.98 4.38 21.74 4.13C21.49 3.88 21.16 3.75 20.81 3.75ZM18 7.31C18 7.36 17.98 7.4 17.94 7.44C17.9 7.48 17.86 7.5 17.81 7.5L3.56 7.5C3.51 7.5 3.46 7.48 3.42 7.44C3.39 7.4 3.37 7.36 3.37 7.31L3.37 1.31C3.37 1.26 3.39 1.21 3.42 1.17C3.46 1.14 3.51 1.12 3.56 1.12L17.81 1.12C17.86 1.12 17.9 1.14 17.94 1.17C17.98 1.21 18 1.26 18 1.31L18 7.31Z" fill="#B0B0B0" fill-opacity="1.000000" fill-rule="nonzero"/>
</svg>
