<svg width="25.189941" height="17.900757" viewBox="0 0 25.1899 17.9008" fill="none" xmlns="http://www.w3.org/2000/svg" xmlns:xlink="http://www.w3.org/1999/xlink">
	<desc>
			Created with Pixso.
	</desc>
	<defs/>
	<path id="Vector" d="M24.43 15.32C24.43 15.81 24.24 16.27 23.9 16.61C23.56 16.95 23.1 17.15 22.61 17.15L2.57 17.15C2.08 17.15 1.62 16.95 1.28 16.61C0.94 16.27 0.75 15.81 0.75 15.32L0.75 2.57C0.75 2.08 0.94 1.62 1.28 1.28C1.62 0.94 2.08 0.75 2.57 0.75L22.61 0.75C23.1 0.75 23.56 0.94 23.9 1.28C24.24 1.62 24.43 2.08 24.43 2.57L24.43 15.32ZM24.43 2.57L13.63 10.05C13.32 10.26 12.96 10.37 12.59 10.37C12.22 10.37 11.86 10.26 11.55 10.05L0.75 2.57" stroke="#1D1D1D" stroke-opacity="1.000000" stroke-width="1.500000" stroke-linejoin="round"/>
</svg>
