<svg width="46.666504" height="30.332031" viewBox="0 0 46.6665 30.332" fill="none" xmlns="http://www.w3.org/2000/svg" xmlns:xlink="http://www.w3.org/1999/xlink">
	<desc>
			Created with Pixso.
	</desc>
	<defs/>
	<path id="Vector" d="M45.5 26.05C45.5 26.88 45.14 27.67 44.5 28.25C43.86 28.83 42.99 29.16 42.08 29.16L4.57 29.16C3.67 29.16 2.8 28.83 2.16 28.25C1.52 27.67 1.16 26.88 1.16 26.05L1.16 4.27C1.16 3.45 1.52 2.66 2.16 2.07C2.8 1.49 3.67 1.16 4.57 1.16L42.08 1.16C42.99 1.16 43.86 1.49 44.5 2.07C45.14 2.66 45.5 3.45 45.5 4.27L45.5 26.05ZM45.5 4.27L25.27 17.05C24.7 17.41 24.02 17.6 23.33 17.6C22.63 17.6 21.96 17.41 21.39 17.05L1.16 4.27" stroke="#FFFFFF" stroke-opacity="1.000000" stroke-width="2.333333" stroke-linejoin="round"/>
</svg>
