<svg width="24.577637" height="24.577759" viewBox="0 0 24.5776 24.5778" fill="none" xmlns="http://www.w3.org/2000/svg" xmlns:xlink="http://www.w3.org/1999/xlink">
	<desc>
			Created with Pixso.
	</desc>
	<defs/>
	<path id="Vector" d="M3.99 12.71L6.7 9.99L8.55 8.14C8.94 7.75 9.22 7.26 9.36 6.73C9.5 6.19 9.48 5.63 9.33 5.1C9.06 4.21 8.87 3.29 8.78 2.36C8.68 1.43 7.87 0.75 6.94 0.75L2.62 0.75C1.51 0.75 0.66 1.7 0.75 2.81C1.74 13.95 10.61 22.83 21.76 23.81C22.86 23.91 23.82 23.06 23.82 21.95L23.82 18.1C23.82 16.69 23.13 15.89 22.21 15.79C21.28 15.69 20.36 15.51 19.47 15.24C18.94 15.08 18.38 15.07 17.84 15.21C17.3 15.35 16.81 15.63 16.42 16.02L14.58 17.87C11.24 16.06 8.51 13.32 6.7 9.99M11.86 20.58L14.58 17.87" stroke="#1D1D1D" stroke-opacity="1.000000" stroke-width="1.500000" stroke-linejoin="round" stroke-linecap="round"/>
</svg>
