<svg width="19.966309" height="19.970215" viewBox="0 0 19.9663 19.9702" fill="none" xmlns="http://www.w3.org/2000/svg" xmlns:xlink="http://www.w3.org/1999/xlink">
	<desc>
			Created with Pixso.
	</desc>
	<defs/>
	<path id="Vector" d="M6.3 13.66C10.15 17.5 13.71 17.92 14.76 17.96C16.02 18.01 17.31 16.98 17.87 15.92C16.98 14.88 15.82 14.07 14.55 13.19C13.8 13.94 12.88 15.33 11.65 14.83C10.95 14.55 9.22 13.75 7.72 12.24C6.21 10.73 5.41 9.01 5.13 8.31C4.63 7.08 6.03 6.16 6.78 5.41C5.9 4.12 5.1 2.93 4.06 2.08C2.99 2.64 1.95 3.92 2 5.2C2.04 6.25 2.46 9.81 6.3 13.66ZM14.68 19.96C13.24 19.91 9.16 19.35 4.89 15.07C0.61 10.8 0.05 6.72 0 5.28C-0.08 3.08 1.6 0.95 3.54 0.12C3.78 0.01 4.03 -0.02 4.29 0C4.54 0.03 4.78 0.12 4.99 0.27C6.6 1.45 7.7 3.22 8.66 4.62C8.86 4.91 8.95 5.26 8.91 5.6C8.88 5.95 8.73 6.28 8.48 6.53L7.12 7.89C7.44 8.58 8.08 9.78 9.13 10.83C10.18 11.88 11.38 12.52 12.07 12.84L13.43 11.48C13.68 11.23 14.01 11.08 14.36 11.05C14.71 11.01 15.06 11.11 15.35 11.31C16.77 12.29 18.44 13.39 19.65 14.94C19.81 15.15 19.92 15.4 19.95 15.66C19.98 15.92 19.95 16.19 19.84 16.43C19 18.38 16.89 20.04 14.68 19.96Z" fill="#B0B0B0" fill-opacity="1.000000" fill-rule="evenodd"/>
</svg>
