<?xml version="1.0" encoding="utf-8"?><svg viewBox="0 0 244 45" xmlns="http://www.w3.org/2000/svg" xmlns:xlink="http://www.w3.org/1999/xlink"><style>:root>svg{display:none}:root>svg:target{display:block}</style><svg fill="none" viewBox="0 0 21.99 21.99" id="instagram" xmlns="http://www.w3.org/2000/svg"><path d="M15.71.75H6.27C3.22.75.75 3.22.75 6.27v9.44c0 3.05 2.47 5.53 5.52 5.53h9.44c3.05 0 5.53-2.48 5.53-5.53V6.27c0-3.05-2.48-5.52-5.53-5.52Z" fill="none"/><path d="M6.27.75C3.22.75.75 3.22.75 6.27v9.44c0 3.05 2.47 5.53 5.52 5.53h9.44c3.05 0 5.53-2.48 5.53-5.53V6.27c0-3.05-2.48-5.52-5.53-5.52H6.27Z" stroke="#1D1D1D" stroke-width="1.5"/><path d="M10.99 15.94c-2.73 0-4.95-2.22-4.95-4.95s2.22-4.95 4.95-4.95 4.95 2.22 4.95 4.95-2.22 4.95-4.95 4.95Z" stroke="#1D1D1D" stroke-width="1.5"/><path d="M18.06 4.98A1.06 1.06 0 1 1 17 3.92c.58 0 1.06.48 1.06 1.06Z" fill="#1D1D1D" fill-rule="evenodd"/></svg><svg fill="none" viewBox="0 0 25.19 17.901" id="mail" xmlns="http://www.w3.org/2000/svg"><path d="M24.43 15.32a1.824 1.824 0 0 1-1.82 1.83H2.57a1.824 1.824 0 0 1-1.82-1.83V2.57c0-.49.19-.95.53-1.29.34-.34.8-.53 1.29-.53h20.04c.49 0 .95.19 1.29.53.34.34.53.8.53 1.29v12.75Zm0-12.75-10.8 7.48a1.848 1.848 0 0 1-2.08 0L.75 2.57" stroke="#1D1D1D" stroke-width="1.5" stroke-linejoin="round"/></svg><svg fill="none" viewBox="0 0 24.578 24.578" id="phone" xmlns="http://www.w3.org/2000/svg"><path d="M3.99 12.71 6.7 9.99l1.85-1.85c.39-.39.67-.88.81-1.41.14-.54.12-1.1-.03-1.63-.27-.89-.46-1.81-.55-2.74-.1-.93-.91-1.61-1.84-1.61H2.62C1.51.75.66 1.7.75 2.81c.99 11.14 9.86 20.02 21.01 21 1.1.1 2.06-.75 2.06-1.86V18.1c0-1.41-.69-2.21-1.61-2.31-.93-.1-1.85-.28-2.74-.55-.53-.16-1.09-.17-1.63-.03-.54.14-1.03.42-1.42.81l-1.84 1.85A19.599 19.599 0 0 1 6.7 9.99m5.16 10.59 2.72-2.71" stroke="#1D1D1D" stroke-width="1.5" stroke-linejoin="round" stroke-linecap="round"/></svg><svg fill="none" viewBox="0 0 244 45" id="skillart-logo" xmlns="http://www.w3.org/2000/svg"><path d="M227.13.18c0-.12.08-.18.25-.18.25 0 .41.18.5.56.08.37.27.58.56.62q.15-.1.22-.24.02-.03.03-.07c0-.25.11-.23.31.06.13.21.26.36.38.44.13.04.23.02.31-.06q.13-.19.13-.5c0-.38.08-.56.25-.56.17 0 .25.14.25.43s.06.48.19.57c.16.08 1.52.12 4.07.12 6.01 0 9.12.1 9.33.31.06.06.09.11.09.16 0 .15-.22.28-.65.41l-.75.18c-.71.09-1.07.15-1.07.19 0 .08.27.13.82.13.67 0 1.12.08 1.38.25.07.05.11.1.11.14 0 .07-.12.11-.37.11-.41 0-.66.1-.75.31-.08.25-.29.37-.62.37l-.57.07.57.06c.21.04.33.12.37.25.04.03.05.06.05.1 0 .05-.04.1-.11.15-.08.08-.21.12-.38.12-.16 0-.25.07-.25.19 0 .13-1.06.27-3.19.44-2.09.16-3.8.25-5.14.25l-2.94.06.12 1.94c.04.41.07.87.07 1.37 0 .42-.07.69-.19.82q-.19.09-.19.14.01.04.19.04c.16 0 .25.13.25.38 0 .21-.13.31-.38.31-.21 0-.33.17-.37.5 0 .33.08.6.25.81.29.29.44.9.44 1.82 0 .25-.05.37-.13.37-.17 0-.25.27-.25.81s.06.73.19.57c.21-.34.35-.28.44.18.01.07.02.15.02.23 0 .17-.03.36-.09.59-.08.5-.12.81-.12.93.04.13.06.44.06.94 0 .63-.04 1-.12 1.13-.03.08-.05.15-.05.2 0 .11.06.17.17.17.08 0 .13.35.13 1.06 0 1-.02 1.9-.07 2.69-.08 2.75-.12 5.21-.12 7.38v4c0 .25.12.33.37.25.13-.05.21.02.25.18.03.09.04.22.04.39 0 .18-.01.4-.04.68v.81c-.04-.04-.06-.13-.06-.25-.08-.5-.16-.75-.25-.75-.17 0-.29.54-.37 1.62-.05.29-.07.67-.07 1.13 0 .58.07.87.19.87.04 0 .11-.1.19-.31a.72.72 0 0 1 .12-.25l.07.44c-.04.37-.11.56-.19.56l-.19.19c-.04.21-.08.5-.12.87-.17 1.42-.38 2.13-.63 2.13q-.13 0-.19-.06c-.25-.17-.46-.25-.62-.25-.17 0-.26-.09-.26-.25 0-.17-.04-.3-.12-.38-.13-.08-.19-.04-.19.13 0 .16-.08.25-.25.25-.17 0-.25-.13-.25-.38 0-.33-.15-.37-.44-.12l-.5.5-.69.75.13-.82c.04-.19.06-.35.06-.48 0-.26-.08-.39-.25-.39-.17 0-.27-.09-.31-.25 0-.17.02-.38.06-.63.08-.29.12-.48.12-.56 0-.17.05-.25.13-.25q.1-.05.16-.02.01.01.03.02c.08 0 .12-.04.12-.12 0-.17-.06-.25-.19-.25-.16 0-.25-.23-.25-.69 0-.46.11-.69.32-.69.08 0 .12-.02.12-.05 0-.03-.04-.07-.12-.14-.17-.08-.25-.29-.25-.62l-.19-1.94c.12.17.23.27.31.31.05-.03.07-.1.07-.21 0-.19-.06-.5-.19-.91-.21-.63-.32-1.56-.32-2.81v-2.69c-.04-.75-.06-5.31-.06-13.69v-6.5c.04-.79.06-1.35.06-1.69V6l-1.25-.07h-1.57c-.29 0-.43-.12-.43-.37 0-.46-1.45-.69-4.33-.69q-1.83 0-1.87.3-.01 0-.01.01v.32l-.06.18c0 .09-.04.13-.12.13-.05 0-.13.02-.25.06-.13.04-.3.06-.51.06-.54.04-.83.02-.87-.06 0-.04.02-.08.06-.12v-.19c-.04 0-.1.04-.19.12-.21.21-.44.32-.69.32-.11 0-.17-.04-.17-.1 0-.05.04-.12.11-.22.04-.08.08-.14.13-.18l.43-.5-.56-.32c-.25-.12-.4-.25-.44-.37 0-.13.04-.36.13-.69.06-.26.09-.47.09-.63 0-.29-.09-.43-.28-.43q-.26 0-.32-.11-.02-.03-.02-.07 0-.12.15-.32c.13-.25.36-.42.69-.5.5-.17 2.74-.25 6.7-.25 2.93-.04 4.68-.09 5.27-.13.58-.04.91-.16 1-.37.12-.25.19-.46.19-.63Zm-20.01 33.5c0 .21.11.46.32.75.25.25.39.46.44.63 0 .21.27.62.81 1.25.58.62.88 1.08.88 1.37 0 .17-.09.32-.25.44-.02.02-.03.04-.03.05 0 .01.01.01.03.01h.12c.04-.04.09-.06.13-.06.21-.08.35-.06.44.06.12.09.2.32.25.69.08.67.27 1.15.56 1.44.22.22.33.37.33.44 0 .04-.02.06-.08.06-.17 0-.25.25-.25.75 0 .62-.08.96-.25 1-.13.08-.19.08-.19 0 0-.04.02-.11.06-.19q.04-.12.04-.21c0-.15-.07-.23-.22-.23-.25 0-.38-.1-.38-.31s-.06-.19-.19.06c-.12.21-.27.23-.44.07-.12-.21-.18-.4-.18-.57 0-.12-.07-.18-.19-.18-.13 0-.36-.09-.69-.25-.17-.09-.27-.11-.31-.07l.18.32c.17.2.25.39.25.56 0 .04-.04.06-.12.06-.25 0-.69-.35-1.32-1.06-.66-.79-1.37-1.63-2.13-2.5-.71-.92-1.29-1.69-1.75-2.31-.46-.67-1.09-1.55-1.88-2.63l-1.69-2.44c-1.84-2.71-3.38-4.64-4.64-5.81l-.81-.81h-2.51c-1.71 0-2.56.12-2.56.37 0 .09.04.17.12.25.13.04.19 2.04.19 6 0 2.88-.04 4.86-.13 5.94-.04.33-.06.92-.06 1.75V39c.04.37.06.66.06.87 0 .21-.02.33-.06.38-.07.07-.11.18-.11.33 0 .1.01.22.05.35q.02.13.02.3c0 .23-.03.53-.08.89l-.13.63-.56-.63c-.46-.42-.78-.6-.94-.56-.3.08-.52.04-.69-.13-.13-.12-.21-.16-.25-.12-.02 0-.03.02-.03.08 0 .05.01.13.03.23.01.06.02.11.02.15 0 .1-.03.17-.09.23-.08.04-.2.04-.37 0-.46-.1-.68-.31-.68-.64 0-.09.02-.19.05-.3v-.13c-.08 0-.16.09-.25.25-.2.21-.31.39-.31.55 0 .07.02.14.06.2.05.08.07.14.07.19 0 .08-.06.13-.19.13-.17 0-.34-.09-.51-.25-.45-.46-.68-1.3-.68-2.5 0-.17.02-.28.06-.32.11-.05.17-.18.17-.39 0-.1-.02-.22-.05-.36-.08-.46-.21-.71-.37-.75-.12-.04-.18-.08-.18-.14 0-.07.08-.14.24-.23.3-.15.45-.29.45-.42 0-.05-.03-.1-.07-.14-.05-.05-.15-.05-.32 0-.12.04-.21.02-.25-.07a.88.88 0 0 1-.03-.26c0-.12.01-.26.03-.42.09-.5.13-1.28.13-2.32 0-.33-.02-.64-.06-.93q-.07-.5-.07-.57c0-.12.02-.39.07-.81.08-.46.12-.79.12-1 0-.25-.04-.4-.12-.44-.09-.04-.13-.39-.13-1.06 0-.75.06-1.96.19-3.62l.19-2.5c0-.13-.32-.36-.94-.69-.63-.34-.94-.52-.94-.56 0-.17.29-.34.87-.5.42-.13.69-.25.82-.38.12-.12.21-.37.25-.75.12-1 .19-1.83.19-2.5 0-.96.08-1.48.25-1.56.06-.04.09-.13.09-.27 0-.13-.03-.32-.09-.54-.06-.22-.08-.4-.08-.56 0-.2.04-.35.14-.44.08-.09.12-.15.12-.19 0-.04-.04-.06-.12-.06-.17 0-.25-.28-.25-.82 0-.41.04-.62.12-.62.05 0 .13.04.25.12q.22.21.25.19.01-.01.01-.02 0-.04-.07-.17a.298.298 0 0 1-.05-.14c0-.11.12-.17.37-.17s.39-.06.43-.19c.03-.03.04-.07.04-.1 0-.09-.07-.18-.22-.27-.08-.03-.12-.12-.12-.28 0-.11.02-.24.05-.41v-.37l-.18.18c-.17.17-.3.25-.38.25h-.04q-.15-.05-.15-.56c0-.46.02-.87.06-1.25.05-.21.17-.31.38-.31q.13 0 .31.06c.13.04.23.06.32.06.12 0 .19-.06.19-.18 0-.09-.09-.28-.26-.57-.08-.16-.12-.31-.12-.43 0-.13.04-.23.12-.32.13-.21.19-.54.19-1 0-.58-.08-.93-.25-1.06h-.19c-.12-.04-.25-.06-.37-.06-.21 0-.67.02-1.38.06h-1.5c-1.05 0-1.57-.06-1.57-.19q0-.03.01-.06.08-.19.62-.19c.37 0 1.04-.1 2-.31.96-.25 1.5-.44 1.63-.56.13-.13.25-.15.38-.06.16.04.29.06.37.06q.01-.01.02-.01.04-.04.04-.13 0-.11-.06-.3a1.64 1.64 0 0 1-.05-.34c0-.14.04-.24.11-.28q.27-.18.27-.32c0-.1-.11-.18-.33-.25-.12-.04-.31-.06-.56-.06l-.5-.06.12-.06c.21-.13.32-.23.32-.32 0-.04.06-.06.18-.06h.38c.17-.04.27-.1.31-.19.09-.16.27-.25.57-.25.33 0 .54.11.62.32.04.12.21.1.5-.07.38-.16 1.17-.29 2.38-.37 1.26-.09 2.43-.13 3.51-.13 2.72 0 4.43.11 5.14.32.29.08.58.12.88.12h.25c.25 0 .6.1 1.06.31.63.29 1.07.4 1.32.32.12-.05.18-.05.18 0h.03q.01.01.01.03 0 .03-.04.09c-.03.05-.05.09-.05.12q0 .02.01.03.02.04.11.04c.08 0 .21-.02.37-.06.3-.05.46-.05.5 0q.03 0 .04.01.03.02.03.06 0 .08-.07.24-.03.12-.03.22 0 .09.03.15c.09.04.3.04.63 0q.81-.06 1.69.57c1.3.87 2.22 1.66 2.76 2.37.58.71 1.15 1.69 1.69 2.94.38.75.56 1.58.56 2.5v1.06c0 .88-.06 1.31-.18 1.31-.13 0-.21-.46-.26-1.37 0-2.46-.18-3.69-.56-3.69-.08 0-.23-.21-.44-.62-.16-.46-.27-.82-.31-1.07 0-.08-.08-.12-.25-.12-.21 0-.4.04-.57.12-.16.04-.29.11-.37.19-.02.02-.03.05-.03.08s.01.07.03.11c.08.16.23.14.44-.06.12-.13.27-.13.44 0 .16.08.27.25.31.5v.12c.04.04.08.1.12.19.05.08.07.16.07.25q.69 1.62.69 2.94c0 .33-.05.52-.13.56-.04.04-.06.33-.06.87 0 1.29-.19 2.46-.57 3.5-.04.17-.06.27-.06.32.04 0 .15-.07.31-.19.26-.29.42-.65.51-1.06.12-.59.25-.9.37-.94.13.08.19.29.19.62q0 .57-.69 1.75c-.42.79-.73 1.19-.94 1.19-.08 0-.12.08-.12.25 0 .03.01.06.01.09q0 .06-.03.1-.05.06-.17.06-.16 0-.24.08-.08.08-.08.23c0 .17-.5.71-1.5 1.63-.96.96-1.96 1.6-3.01 1.94-1.12.37-1.69.77-1.69 1.18 0 .17.13.32.38.44.33.17.6.65.81 1.44.34.96.96 2.21 1.88 3.75.92 1.54 1.74 2.71 2.45 3.5.29.29.43.58.43.87ZM3.32 17.81q0-.25-.38-.63-.26-.36-.26-.73c0-.05 0-.09.01-.14 0-.46-.06-.77-.19-.94q-.01-.02-.03-.04-.66-.8-.66-2.15v-.25q.06-.25.06-.37.07-.38.07-.56.06-.19.12-.32l.06-.12q.07-.06.19-.06c.21.08.36.06.44-.07.02-.03.02-.05.02-.07 0-.03-.03-.05-.08-.05-.04-.04-.13-.06-.25-.06q-.22 0-.33-.11-.11-.11-.11-.33c0-.29.17-.75.5-1.38.33-.66.59-1.02.75-1.06.09-.04.15-.02.19.06.01.02.02.03.02.05 0 .04-.03.08-.08.14q-.06.13-.06.17v.01q.04.03.25-.18c.1-.06.15-.13.15-.2q0-.11-.15-.24c-.17-.16-.25-.29-.25-.37 0-.21.22-.59.68-1.13q.76-.81 1.32-1.06 2.07-1.37 2.32-1.37l.56-.32c.38-.21.61-.31.69-.31.08 0 .23-.04.44-.12.21-.09.33-.13.37-.13.25-.04.38 0 .38.13-.02.04-.03.07-.03.1q0 .03.01.05.05.1.27.1.29 0 .41-.15.09-.1.09-.29v-.03q.03-.3.63-.53c.42-.17.73-.17.94 0 .21.08.33.04.37-.13q.38-.37 1.7-.56 1.44-.25 4.07-.25 3 0 4.51.31c1.29.21 2 .38 2.13.5q.02.02.02.08 0 .11-.09.36c-.08.21-.18.37-.31.5-.12.08-.29.02-.5-.19q-.18-.22-.23-.19-.02.01-.02.07c0 .16-.27.22-.82.18-1.25-.21-2.02-.31-2.31-.31-.17 0-.25.02-.25.06 0 .04.02.07.06.07.08.08.23.12.44.12.21-.04.31 0 .31.13.08.16.34.25.75.25 1.21 0 2.05.43 2.51 1.31l.44.87h-.57c-.21 0-.35.04-.44.13-.02.02-.03.05-.03.09 0 .04.01.1.03.16q.04.06.04.12c0 .04-.01.09-.04.13-.04.04-.16.06-.37.06-.34 0-.57-.06-.69-.19-.08-.08-.77-.12-2.07-.12-1.29 0-2.11-.11-2.44-.31-.13-.17-.36-.19-.69-.07-.33.09-.63.13-.88.13l-.81.12-2.38.19c-.25 0-.38.06-.38.19v.02q-.04.17-.81.17c-.54 0-.88.1-1 .31-.13.12-.19.16-.19.12-.04-.08-.19-.08-.44 0-.25.04-.52.17-.81.38-.26.16-.38.29-.38.37 0 .21-.08.32-.25.32q-.25 0-1.32 1.06-1 1-1 1.25c0 .16.08.21.25.12l.06-.06c.1-.03.15-.03.15.01 0 .01-.01.03-.02.05 0 .04-.04.15-.13.32-.08.29-.14.54-.18.75-.13.41-.19.79-.19 1.12 0 .67.37 1.58 1.13 2.75.54.92 1.1 1.56 1.69 1.94.58.33 1.73.77 3.44 1.31 1.34.42 2.2.77 2.57 1.06.29.21.52.32.69.32.13 0 .48.18 1.07.56.58.37.93.56 1.06.56s.54.29 1.25.88c.71.58 1.11.87 1.19.87.17 0 .69.48 1.57 1.44.88.91 1.46 1.6 1.75 2.06.09.13.23.38.44.75.21.33.36.6.44.81.13.17.25.42.38.75q.18.5.25 1c.08.34.12.71.12 1.13 0 1-.1 1.85-.31 2.56-.21.67-.46 1-.75 1h-.13c-.21-.08-.44.1-.69.56l-.12.38c-.04.08-.07.14-.07.19v.12l-.12.38c-.08.04-.17-.03-.25-.19-.08-.21-.19-.15-.31.19-.09.33-.21.5-.38.5q-.04 0-.07.01-.12.06-.12.36c0 .33.09.35.25.06.13 0 .19.09.19.25 0 .46-.1.75-.31.88-.17.12-.27.19-.32.19v-.38c0-.21-.04-.33-.12-.37-.04-.09-.13-.09-.25 0-.13.04-.23.16-.32.37-.2.38-.43.67-.68.88-.23.16-.35.32-.35.48 0 .05.01.09.03.14v.06l.07.07c0 .5-.76 1.02-2.26 1.56-2.46.83-5.14 1.25-8.02 1.25-1.88 0-3.13-.06-3.76-.19A7.68 7.68 0 0 1 5.82 42c-.38-.17-.56-.32-.56-.44 0-.13-.11-.15-.32-.06h-.18q-.32 0-1.13-.19c-.54-.17-.84-.25-.88-.25-.17-.04-.52-.31-1.06-.81-.55-.55-.82-.88-.82-1 0-.13-.14-.48-.44-1.07Q0 37.37 0 37.06c0-.17.14-.25.43-.25.25 0 .46.02.63.06.5.04 1.09.17 1.75.38.67.16 1.15.27 1.44.31.55.08.9.21 1.07.37.17.17.94.25 2.32.25 2.09 0 3.76-.14 5.01-.43 2.04-.46 3.78-1.03 5.2-1.69.42-.17.96-.63 1.63-1.38.71-.75 1.19-1.37 1.44-1.87.25-.55.38-.97.38-1.26 0-.04 0-.08-.01-.12l-.06-.37.13.19c.17.2.26.27.26.19 0-.02-.01-.04-.01-.07 0-.12-.07-.31-.19-.56l-.44-.88c-.17-.33-.25-.58-.25-.75 0-.16-.44-.66-1.32-1.5-.83-.83-1.69-1.58-2.56-2.25q-1.19-.93-3.2-1.43c-1-.25-2.23-.67-3.7-1.25-1.41-.59-2.33-1.05-2.75-1.38q-.19-.19-1.19-.69-.63-.25-1.69-1.37c-.67-.75-1-1.25-1-1.5Zm183.13-15.5c-.04.16-.06.33-.06.5v.06c0 .42.21.63.63.63.37 0 .62-.17.75-.5.04-.13.1-.21.19-.25.12-.09.2-.09.25 0 .08.04.12.12.12.25 0 .16.42.22 1.25.18 1.47-.16 2.2-.35 2.2-.56 0-.21-1.78-.31-5.33-.31Zm47.06.25c0 .12.03.19.07.19.09-.07.14-.15.14-.26q0-.06-.02-.12c-.04-.04-.08-.02-.12.06-.04.04-.07.09-.07.13Zm-1.12.06c0-.04-.04-.06-.13-.06-.08 0-.12.02-.12.06 0 .08.04.13.12.13.09 0 .13-.05.13-.13Zm-215.61.25c0-.17-.12-.25-.37-.25-.21 0-.32.08-.32.25 0 .13.11.19.32.19.25 0 .37-.06.37-.19Zm176.75 0c.08 0 .13-.04.13-.12 0-.09-.05-.13-.13-.13-.04 0-.06.04-.06.13 0 .08.02.12.06.12Zm.94 0c.08 0 .13-.04.13-.12 0-.09-.05-.13-.13-.13s-.12.04-.12.13c0 .08.04.12.12.12Zm7.64.25c.09 0 .13-.04.13-.12 0-.09-.04-.13-.13-.13-.08 0-.12.04-.12.13 0 .08.04.12.12.12Zm-190.96.19c.08 0 .12-.04.12-.13 0-.08-.04-.12-.12-.12-.09 0-.13.04-.13.12q0 .06.03.1.03.03.1.03Zm.81-.06q.06.06.19.06.06-.06.06-.13c0-.04-.02-.08-.06-.12-.09 0-.15.02-.19.06-.02.02-.03.04-.03.06 0 .02.01.04.03.07Zm.94.06c.08 0 .12-.04.12-.13 0-.08-.04-.12-.12-.12-.08 0-.13.04-.13.12 0 .09.05.13.13.13Zm1.94.62q.22 0 .31-.11.07-.07.07-.2 0-.3-.06-.31h-.01c-.16.12-.31.23-.43.31q-.04.03-.04.07-.01.01-.01.02 0 .1.17.22Zm226.82-.5c0-.08-.32-.12-.94-.12l-.82.12c.02.02.04.05.04.08s-.02.07-.04.11l-.12.25a.26.26 0 0 0-.03.11c0 .03.01.06.03.08.08.04.25.06.5.06.33.04.65 0 .94-.12.29-.17.44-.36.44-.57Zm-4.2.5c.17 0 .25-.08.25-.25 0-.16-.08-.25-.25-.25-.12 0-.19.09-.19.25 0 .17.07.25.19.25Zm4.76-.25c.09 0 .13-.04.13-.12 0-.09-.04-.13-.13-.13-.08 0-.12.04-.12.13 0 .08.04.12.12.12Zm-228.13.13c.17-.18.26-.28.26-.31h-.01c-.08 0-.17.04-.25.12q-.19.31-2.57.31c-.33 0-.5.13-.5.38 0 .21-.06.31-.19.31-.17 0-.25.06-.25.19.04.04.08.06.13.06q.44 0 1.75-.37c.92-.3 1.46-.53 1.63-.69Zm132.59 38.44c-.29.33-.44.54-.44.62 0 .08-.23.35-.69.81-.42.42-.63.69-.63.82 0 .16-.08.25-.25.25q-.1 0-.18-.05-.17-.08-.25-.33c-.01-.06-.02-.11-.02-.17 0-.22.07-.41.2-.58.06-.14.09-.23.09-.28 0-.02-.01-.03-.02-.03-.13.04-.34 0-.63-.13-.33-.21-.5-.66-.5-1.37 0-.63.14-1.17.44-1.63.18-.24.28-.43.28-.59a.27.27 0 0 0-.1-.22c-.04-.04-.06-.15-.06-.31q0-.44.13-.94c.12-.33.25-.5.37-.5h.07c.04.04.08.04.12 0 .04-.04.06-.08.06-.12 0-.13.15-.34.44-.63q.29-.29.39-.63.05-.18.05-.37c0-.17.1-.46.31-.87l.63-1.69c.38-1 .63-1.59.75-1.75.21-.29.31-.52.31-.69 0-.08.13-.37.38-.87s.38-.84.38-1c0-.21.04-.32.12-.32.17 0 .4-.31.69-.93.33-.67.5-1.15.5-1.44 0-.29.04-.46.13-.5.21-.13.31-.38.31-.75.04-.29.08-.44.13-.44.16.08.29 0 .37-.25.17-.5.61-1.42 1.32-2.75.15-.27.22-.49.22-.68q0-.11-.03-.19a.542.542 0 0 1 0-.63c.12-.25.27-.35.43-.31.21.08.32.02.32-.19s-.09-.4-.25-.56c-.11-.11-.16-.18-.16-.22 0-.05.09-.04.28.03.22.07.32.02.32-.15 0-.03 0-.06-.01-.1 0-.04-.02-.15-.06-.31.04-.21.09-.31.13-.31.12.08.18.02.18-.19s.11-.31.32-.31c.09 0 .14-.03.14-.07 0-.03-.03-.07-.08-.12-.04 0-.08-.02-.13-.06-.13-.07-.2-.15-.2-.25 0-.07.05-.16.14-.25.21-.21.32-.19.32.06 0 .08.06.02.18-.19.09-.12.19-.29.32-.5.24-.45.36-.8.36-1.03 0-.09-.02-.16-.05-.22-.05-.06-.07-.11-.07-.15 0-.07.07-.1.2-.1.25 0 .37-.1.37-.31 0-.25.04-.4.13-.44.08-.04.27-.35.56-.94.3-.52.45-.85.45-1.01 0-.02-.01-.04-.01-.05q0-.04.02-.06.04-.06.17-.06c.07 0 .11-.03.11-.07q0-.05-.05-.12a.653.653 0 0 0-.19-.31c-.03-.05-.05-.09-.05-.12q0-.02.01-.04.02-.03.1-.03c.17 0 .3-.23.38-.69.04-.42.23-.67.56-.75.21-.03.31-.1.31-.21 0-.05-.02-.1-.06-.16-.08-.17-.12-.4-.12-.69 0-.88.1-1.31.31-1.31.13 0 .23-.13.32-.38.06-.12.09-.24.09-.34 0-.11-.03-.2-.09-.28l-.01-.01q-.01-.01-.01-.03 0-.09.2-.34.32-.37.57-.69c.11-.16.16-.28.16-.36 0-.04-.01-.06-.04-.07-.13-.06-.19-.16-.19-.31 0-.09.02-.19.07-.32.04-.17.12-.23.25-.19.11.06.17.12.17.2 0 .03-.02.07-.05.12-.04.06-.07.11-.07.14 0 .05.07.07.2.04l1.19-.43.06.06c.04-.04.06-.11.06-.19 0-.42.28-.35.82.19.42.46 1.48 2.48 3.19 6.06 1.72 3.58 3.01 6.5 3.89 8.75q.06.25 1.94 4.63c.63 1.5.94 2.31.94 2.43 0 .21.08.32.25.32.12 0 .19.2.19.62 0 .38.21 1.06.62 2.06.46 1 .71 1.57.76 1.69.16.67.33 1.08.5 1.25.25.25.37.44.37.56 0 .04.13.38.38 1 .25.63.37 1 .37 1.13 0 .29.21 1.04.63 2.25.46 1.21.81 1.89 1.07 2.06.12.04.39.71.81 2 .46 1.29.69 2.06.69 2.31 0 .17-.13.25-.38.25-.21 0-.44-.08-.69-.25q-.01 0-.02-.01-.25-.08-.73.51c-.5.38-.77.44-.81.19 0-.29-.13-.44-.38-.44-.19 0-.28-.02-.28-.06 0-.03.05-.07.16-.12q.11-.05.13-.13.01-.01.01-.03c0-.07-.07-.17-.21-.28-.2-.17-.43-.5-.69-1-.25-.5-.39-.94-.43-1.31l-.63-1.44c.04 0 .06-.02.06-.04 0-.06-.08-.17-.25-.34-.19-.18-.28-.36-.28-.52 0-.06.01-.11.03-.16l-.06-.19c-.21.12-.31 0-.31-.38 0-.25-.07-.46-.19-.62-.09-.21-.13-.4-.13-.56.01-.03.01-.06.01-.09 0-.15-.08-.33-.26-.54q-.2-.35-.2-.5c0-.03.01-.05.01-.06q.01-.03.01-.05c0-.13-.13-.3-.38-.51q-.23-.23-.23-.39c0-.07.04-.13.1-.18.13-.06.19-.12.19-.17 0-.05-.06-.1-.19-.14-.09-.03-.14-.16-.14-.38q0-.1.02-.24c.01-.1.01-.18.01-.25 0-.21-.04-.32-.14-.32-.09 0-.14-.03-.14-.1q0-.04.02-.08c.01-.05.01-.08.01-.11 0-.1-.04-.14-.14-.14-.09 0-.14-.04-.14-.11 0-.02.01-.05.02-.08.01-.04.01-.08.01-.11 0-.1-.04-.14-.14-.14-.21 0-.37-.13-.5-.38a.605.605 0 0 1-.04-.22c0-.13.05-.22.17-.28.04-.03.07-.07.07-.13 0-.09-.07-.21-.2-.37-.15-.18-.22-.31-.22-.41 0-.03.01-.06.03-.09v-.06c-.04.04-.08.06-.12.06q-.38.25-1.19.25c-.38 0-.69.07-.94.19-.25.13-.48.19-.69.19h-.44c-.63-.04-.94.02-.94.19 0 .08-.13.02-.38-.19-.12-.09-.2-.06-.25.06-.12.21-.29.31-.5.31-.12 0-.23-.02-.31-.06a.114.114 0 0 1-.03-.08q0-.04.03-.11c-.25-.08-.46-.14-.63-.18-.08 0-.27-.03-.56-.07-.29-.04-.52-.06-.69-.06-.17 0-.25.06-.25.19 0 .41-.25.44-.75.06-.63-.5-1.17-.52-1.63-.06-.17.16-.25.16-.25 0 0-.21-.13-.25-.38-.13-.25.13-.48.11-.69-.06a.923.923 0 0 0-.44-.25.315.315 0 0 0-.37 0c-.08.04-.13.13-.13.25 0 .25-.18.25-.56 0-.25-.12-.56-.19-.94-.19-.75 0-1.13.13-1.13.38 0 .12-.06.14-.19.06-.04-.04-.14-.06-.31-.06-.33 0-.71.1-1.13.31-.41.21-.71.44-.87.69-.09.12-.15.27-.19.44 0 .16-.02.29-.06.37 0 .08-.02.13-.07.13-.12 0-.33.39-.62 1.18-.3.79-.48 1.19-.57 1.19v.19c-.04.12-.08.27-.12.44-.04.16-.09.27-.13.31-.25.25-.37.46-.37.62 0 .25-.23.75-.69 1.5-.46.71-.71 1.21-.75 1.5q-.11.57-.42.97-.07.08-.15.16c-.08.08-.14.16-.19.25-.04.08-.06.16-.06.25 0 .04-.02.08-.06.12 0 .04-.02.07-.06.07-.17 0-.25.14-.25.43 0 .17-.15.44-.44.82ZM60.27 7.93v-.12a.549.549 0 0 1-.06-.19c0-.54.13-1.29.38-2.25s.48-1.44.69-1.44c.25 0 .39.71.43 2.13.05 1.16.17 1.75.38 1.75.17 0 .25-.11.25-.31 0-.13.04-.57.13-1.32.08-1 .23-1.5.43-1.5.05 0 .07.13.07.38s.12.48.37.69c.19.12.29.29.29.51q0 .11-.04.24c0 .08-.02.16-.06.25v.18c0 .25.06.54.19.88.17.33.27.64.31.94.09.66.13 1.06.13 1.18 0 .17.08.25.25.25q.01 0 .01.01v.01c0 .03-.04.11-.14.23l-.25.32c0 .16-.04.33-.12.5q-.05.12-.05.22c0 .09.03.16.11.21.12.04.25-.02.38-.18.12.04.18.1.18.18 0 .34-.06.5-.18.5-.09 0-.13.38-.13 1.13v.06c.04.92.08 1.38.13 1.38.04 0 .1-.09.18-.25.09-.05.15.04.19.25 0 .5-.06.77-.19.81-.08.04-.12.12-.12.25 0 .12.04.35.12.69.09.33.13.56.13.68 0 .13-.04.21-.13.25-.12.04-.18.5-.18 1.38 0 .83.12 1.33.37 1.5.21.12.31.39.31.81q.02.09.02.18c0 .27-.09.44-.27.51-.12.08-.18 0-.18-.25.04-.09.08-.21.12-.38.02-.04.02-.07.02-.08v-.01q-.01-.01-.08.09c0 .04-.04.13-.13.25-.08.25-.12.5-.12.75v.57c.04.25.06.43.06.56 0 .21-.04.48-.12.81-.1.25-.15.43-.15.54 0 .04.01.06.02.09.08.08.19 0 .31-.25l.13-.38.19-.56c.04 0 .06.08.06.25 0 .16-.02.41-.06.75-.01.21-.02.39-.02.54q0 .68.13.71h.01c.17 0 .25.16.25.5 0 .29-.08.48-.25.56-.12.04-.19.25-.19.63.02.11.02.21.02.29 0 .18-.02.31-.08.39q-.09.16-.09.24 0 .03.01.05.03.03.08.03c.17 0 .25.12.25.37 0 .21-.08.31-.25.31-.17 0-.25.01-.25.03 0 .02.08.06.25.1.17.08.25.41.25 1 0 .33-.02.56-.06.69-.04.08-.11.08-.19 0q-.12-.13-.31-.19c-.09-.04-.17 0-.25.12-.04.04-.07.09-.07.13.05.04.11.04.19 0 .17-.13.34-.06.5.19.12.13.17.28.17.44 0 .08-.01.16-.04.24-.08.25-.21.27-.38.07-.08-.13-.14-.17-.18-.13 0 .04.02.17.06.38.17.58.25 1.1.25 1.56 0 .46-.06.71-.19.75-.08.08-.12.25-.12.5 0 .33.06.31.18-.06.13-.3.19-.3.19 0 0 .33-.06.54-.19.62a.72.72 0 0 0-.12.25c0 .08.02.15.06.19.04.08.06.31.06.69 0 1.04-.08 1.58-.25 1.62-.08.04-.12.38-.12 1 0 .54-.09.85-.25.94-.09.04-.13.16-.13.37v.57c0 .16-.04.25-.12.25-.13 0-.19.25-.19.75 0 .58-.11.87-.31.87-.13 0-.28-.15-.44-.44-.17-.37-.3-.56-.38-.56-.12 0-.31-.04-.56-.12-.18-.07-.26-.04-.26.09q0 .04.01.09c0 .42-.02.63-.07.63-.08 0-.2.04-.37.12-.17.04-.31.07-.44.07-.08-.05-.17-.15-.25-.32-.04-.21-.21-.46-.5-.75-.25-.16-.38-.68-.38-1.56 0-.62.11-.94.32-.94.12 0 .2-.04.25-.12q.02-.06.02-.12 0-.04-.02-.08-.02-.06-.07-.11a.351.351 0 0 0-.25-.25c-.21-.09-.31-.25-.31-.5 0-.3.08-.48.25-.57.04 0 .06-.1.06-.31 0-.17-.02-.44-.06-.81-.04-.42-.06-.69-.06-.81 0-.38-.07-.61-.19-.69-.12-.06-.17-.1-.17-.14 0-.03.07-.05.23-.05q.12 0 .21-.06.13-.08.17-.31c.01-.05.01-.1.01-.16 0-.19-.07-.39-.2-.59q-.09-.16-.09-.32 0-.15.09-.31c.13-.21.23-1.62.31-4.25.09-5.21.23-8.04.44-8.5.03-.03.04-.06.04-.11 0-.09-.05-.22-.16-.39l-.01-.01q-.04-.07-.04-.17c0-.1.03-.23.11-.38.05-.13.08-.23.08-.31q0-.08-.04-.13t-.1-.06c-.09-.09-.13-.27-.13-.56.02-.12.02-.21.02-.3 0-.16-.03-.27-.08-.33-.25-.25-.38-.69-.38-1.31 0-.38.07-.59.19-.63.1-.05.14-.1.14-.16 0-.05-.02-.1-.08-.15-.08-.12-.18-.23-.31-.31-.03-.03-.04-.06-.04-.08 0-.05.05-.08.17-.11.2-.08.31-.19.31-.31 0-.13-.08-.15-.25-.06q-.02.01-.04.01-.15-.02-.15-1.2c0-.92.1-1.38.31-1.38s.32-.06.32-.18c0-.13-.11-.15-.32-.07-.18.07-.28.05-.28-.06q0-.05.03-.12c0-.09.02-.21.07-.38.09-.19.14-.33.14-.41 0-.06-.03-.09-.08-.09-.04 0-.06-.03-.06-.08 0-.1.08-.3.25-.61.25-.37.37-.77.37-1.18 0-.25-.06-.53-.19-.82Zm174-3.62c.37 0 .56-.02.56-.06 0-.13-.31-.19-.94-.19-.25 0-.38.04-.38.12 0 .09.26.13.76.13Zm-73.06.94c0-.46-.08-.8-.25-1-.08-.09-.15-.05-.19.12v.19c-.03.12-.04.24-.04.35 0 .22.06.42.17.59.12.16.19.22.19.18.04-.04.08-.16.12-.37v-.06ZM41.72 14.12c0-.08.19-.31.57-.69.37-.37.56-.62.56-.75 0-.16.06-.23.19-.18.17 0 .29-.05.38-.13q.03-.06.03-.09 0-.02-.01-.03h-.02c0-.05-.05-.05-.13 0-.17.08-.25.08-.25 0 0-.13.19-.44.56-.94l.19-.19c.17-.25.27-.37.32-.37.02-.03.03 0 .03.06s-.01.16-.03.31c-.03.15-.04.26-.04.33s.01.11.04.11c.04 0 .1-.02.18-.06.14-.17.2-.36.2-.58 0-.06 0-.12-.01-.17-.01-.05-.01-.1-.01-.15 0-.24.09-.46.26-.67.25-.29.5-.41.75-.37.21.12.32.06.32-.19 0-.08.33-.4 1-.94.67-.54 1-.87 1-1 0-.41.25-.68.75-.81.04-.04.32-.25.82-.62.5-.38.83-.57 1-.57h.06c.25.09.46 0 .63-.25.12-.29.46-.54 1-.75.46-.21.77-.25.94-.12.07.03.1.09.1.17q0 .18-.23.52c-.17.21-.25.4-.25.57 0 .11.04.21.13.3.05.06.07.14.07.22 0 .15-.07.32-.2.53-.2.33-.39.46-.56.38-.08-.05-.12-.03-.12.06l.06.12c.08.29.23.4.44.32.08 0 .12-.07.12-.19 0-.13.11-.19.31-.19q.2 0 .24.08.02.03.02.07 0 .11-.13.29l-.5.31c-.29.08-.44.23-.44.44q0 .31-1.13 1.56c-.87.88-1.5 1.56-1.88 2.06-.5.59-.83.84-1 .75-.05-.03-.08-.03-.08 0q0 .02.02.07c.01.01.01.03.01.05 0 .09-.07.22-.2.38-.17.17-.35.34-.56.5-.17.13-.25.17-.25.13 0-.09-.07-.02-.19.19l-.31.62v.09c0 .32-.21.47-.63.47-.08 0-.29.23-.63.69q-.5.69-.62.94-.25.56-2.01 2.69c-1.17 1.41-1.75 2.14-1.75 2.18 0 .17.23.5.69 1 .5.5.83.75 1 .75.19 0 .28.05.28.14 0 .03-.01.07-.03.11 0 .21.15.57.44 1.07.21.29.37.43.5.43 0-.12.04-.12.12 0 0 .09.03.19.07.32.08.37.25.6.5.68.17-.04.25-.08.25-.12-.08-.13-.19-.17-.31-.13l-.19.07q0-.07.12-.5c.04-.13.09-.21.13-.25.08-.05.14-.05.19 0 .08 0 .16.06.25.18.12.09.25.23.37.44q.28.44.28.67 0 .1-.04.16l-.05.05c-.09.05-.13.1-.13.15 0 .07.09.15.26.22.2.08.35.06.43-.06.09.04.13.08.13.12 0 .29.08.44.25.44.13 0 .21.25.25.75.01.17.02.31.02.44q0 .37-.08.5c.08-.04.21-.17.37-.38l.44-.5.63.88c.37.58.56.96.56 1.12 0 .09.07.19.19.32.17.04.44.33.81.87.38.54.57.92.57 1.13 0 .2.08.29.25.25.04-.05.08-.05.12 0h.02q.02.01.02.04 0 .05-.04.14c0 .04-.01.07-.01.1 0 .13.07.24.2.34.14.1.2.2.2.3 0 .03 0 .05-.01.08-.03.05-.05.08-.05.11s.04.04.11.01H51c.16 0 .37.21.62.63.29.41.44.75.44 1 0 .08.19.43.56 1.06.38.62.57 1 .57 1.12 0 .25.12.44.37.57.3.16.61.6.94 1.31.5.96 1.03 1.71 1.57 2.25.38.37.69.77.94 1.19.12.16.19.29.19.37.04.04.06.1.06.19 0 .04-.02.08-.06.12-.04 0-.15.04-.32.13-.08.04-.18.06-.31.06-.17 0-.35-.15-.56-.44-.21-.29-.42-.43-.63-.43h-.06l-.13.06c-.37.08-.64.25-.81.5-.09.12-.23.19-.44.19h-.19l-.06.12c-.04.08-.06.19-.06.31 0 .38-.07.57-.19.57-.17 0-.44-.19-.82-.57-.37-.41-.56-.71-.56-.87 0-.13-.23-.38-.69-.75-.42-.38-.62-.61-.62-.69 0-.08-.23-.44-.69-1.06-.46-.63-.69-1-.69-1.13a.562.562 0 0 1-.08-.18c-.2.08-.37.03-.49-.13-.11-.17-.16-.28-.16-.33 0-.03.01-.04.04-.04.01 0 .01-.01.01-.02 0-.06-.3-.39-.89-.98-.63-.63-.94-1.09-.94-1.38.02-.04.02-.08.02-.11 0-.07-.03-.11-.08-.14-.04-.08-.13-.1-.25-.06-.21.04-.4-.04-.57-.25a2.17 2.17 0 0 1-.37-.81c-.13-.5-.34-.75-.63-.75-.12 0-.31-.15-.56-.44-.21-.34-.34-.52-.38-.56-.04-.03-.06-.05-.06-.07 0-.02.02-.04.06-.06.04-.04.11-.06.19-.06.15 0 .23-.06.23-.18 0-.08-.04-.19-.1-.32-.17-.29-.36-.36-.57-.19h-.06l-.06.06c-.21 0-.46-.27-.76-.81-.25-.58-.37-1.02-.37-1.31v-.06c.04 0 .06-.03.06-.07.05-.07.07-.14.07-.21 0-.17-.15-.33-.44-.47-.17-.09-.28-.07-.32.06-.04.12-.14-.06-.31-.56l-.25-.82c-.08 0-.19-.12-.31-.37-.09-.29-.19-.52-.32-.69-.12-.21-.27-.23-.44-.06l-.25.12c-.16 0-.29-.31-.37-.93-.09-.63-.23-.96-.44-1-.15-.03-.22-.11-.22-.22 0-.05.01-.1.03-.16a.506.506 0 0 0-.19-.62c-.04-.05-.12-.07-.25-.07-.21 0-.83.59-1.88 1.75-1.79 1.96-2.79 2.94-3 2.94-.09 0-.13.5-.13 1.5 0 2 .08 3.17.25 3.5.06.11.08.2.08.28 0 .1-.05.17-.14.22q-.19.09-.19.14c0 .03.06.05.19.05.12 0 .19.12.19.37a1.733 1.733 0 0 1 0 .63c-.02.07-.02.13-.02.19 0 .12.02.22.08.31q.04.04.06.08.03.07.03.15 0 .14-.09.33t-.09.31q0 .08.03.13.02.04.06.06c.13.08.19.6.19 1.56 0 1.38-.09 2.48-.25 3.32-.21 1.04-.38 1.56-.5 1.56-.09 0-.13-.11-.13-.31 0-.13-.1-.13-.31 0-.09.08-.17.12-.25.12-.3 0-.52.13-.69.38-.21.25-.34.29-.38.12 0-.21-.04-.44-.12-.69-.04-.25-.17-.31-.38-.18-.21.12-.31.33-.31.62 0 .38-.09.56-.25.56-.13 0-.19-.14-.19-.43 0-.42-.11-.63-.31-.63-.09.04-.17.13-.25.25 0 .04-.13.08-.38.13-.08 0-.13.08-.13.25 0 .2-.08.27-.25.18-.12-.08-.29-2.33-.5-6.75v-1c0-.54.11-.98.32-1.31.26-.4.39-.67.39-.79 0-.06-.03-.08-.08-.08-.04 0-.13.02-.25.06-.17 0-.25-.04-.25-.13.08-.12.14-.27.19-.43.04-.21.06-.38.06-.5 0-.13-.04-.19-.13-.19-.12 0-.18-.15-.18-.44.04-.25.1-.37.18-.37.17.12.3 0 .38-.38v-.56c-.08-.42-.13-.98-.13-1.69 0-.79-.08-1.19-.25-1.19-.04 0-.06-.04-.06-.12l.13-.38c.02-.06.03-.11.03-.15 0-.05-.01-.08-.03-.1-.13-.12-.21-2.31-.25-6.56v-1.62c0-2.17.06-3.32.18-3.44.13-.13.19-.46.19-1 0-.96-.12-1.73-.37-2.31q-.15-.43-.15-.64c0-.1.03-.16.08-.18.11-.05.17-.21.17-.47 0-.13-.01-.28-.04-.46-.09-.55-.21-.82-.38-.82-.08 0-.12-.01-.12-.04 0-.04.04-.08.12-.14.17-.09.29-.36.38-.82V9l-.06.12-.07.06c-.04 0-.06-.06-.06-.18 0-.42.08-1.03.25-1.82.03-.13.05-.24.05-.32q0-.13-.06-.16-.02-.02-.05-.02h-.02q-.11-.03-.11-.5c0-.83.11-1.35.32-1.56.12-.12.18-.08.18.13q0 .11.06.19t.19.12c.17.04.34.04.51 0 .16-.09.27-.21.31-.38.08-.29.27-.41.56-.37.34.04.52.23.57.56v.12c0 .25-.12.38-.38.38-.12 0-.17.02-.17.06 0 .03.03.07.11.13q.17.1.17.19c0 .04-.04.08-.11.12-.12.13-.19.23-.19.31.04.09.09.25.13.5.08.21.12.36.12.44 0 .17.02.31.07.44.08.08.16.1.25.06.13 0 .2.02.2.07s-.05.1-.14.18c-.08.13-.19.19-.31.19-.25 0-.38.58-.38 1.75 0 1.37.15 2.16.44 2.37.11.07.17.12.17.15s-.03.04-.11.04c-.17 0-.25.31-.25.94 0 .5-.04 1.33-.12 2.5q-.07.59-.07.9c0 .21.02.33.07.35.04.04.1-.06.18-.31.17-.42.34-.5.5-.25.13.29.25.37.38.25L32.52 7c.02-.03.03-.06.03-.1 0-.09-.07-.23-.22-.4-.17-.17-.25-.46-.25-.88 0-.71.14-1.06.44-1.06.16 0 .29.12.37.37.13.17.19.31.19.42 0 .12-.06.21-.19.27-.11.08-.16.14-.16.17q0 .02.04.02c.01 0 .01 0 .01.02 0 .04-.04.13-.14.29l-.12.19c-.01.01-.01.02-.01.03 0 .05.08.04.26-.03.12-.04.21-.04.25 0 .05.03.08.07.08.14 0 .03-.01.07-.02.11 0 .08-.06.16-.19.25-.12.04-.19.81-.19 2.31 0 3.38.13 5.23.38 5.56.17.17.25.92.25 2.25 0 4.34.15 6.5.44 6.5.08 0 .88-.93 2.38-2.81q1.25-1.56 3.88-4.56l1.69-1.94Zm30.7-9.56q.09-.21.2-.22.11-.01.24.22l.19.31c.25.5.48 1.73.69 3.69.12.91.21 1.37.25 1.37.08 0 .12-.29.12-.87.09-1.25.3-2.31.63-3.19.29-.92.67-1.37 1.13-1.37.08 0 .12.77.12 2.31v.94c0 .91-.04 1.37-.12 1.37-.15 0-.23.06-.23.18 0 .08.04.19.1.32.09.13.17.21.25.25.1.03.14.1.14.2 0 .03 0 .07-.01.11 0 .17.06.25.19.25.08 0 .12.07.12.19 0 .13.04.25.13.38.21.2.31 1.22.31 3.06 0 1.75.06 2.75.19 3 .25.41.37 4.52.37 12.31 0 2.92-.1 4.5-.31 4.75-.08.13-.12.2-.12.23 0 .04.04.02.12-.04.09-.04.15.02.19.19.04.12.06.39.06.81v.75c0 .16-.02.31-.06.44-.04.08-.08.14-.13.18h-.12c-.17-.04-.27.04-.31.25 0 .29.08.59.25.88.15.22.22.38.22.47 0 .06-.03.09-.1.09q-.12 0-.14.04v.02q0 .05.08.13c.04 0 .08.02.12.06.25.17.38.33.38.5 0 .17 1.13.25 3.38.25 6.64.08 10.11.27 10.4.56.17.17.88.25 2.13.25 2.59 0 3.88.11 3.88.32-.04.04-.1.06-.18.06-.25 0-.4.08-.44.25 0 .12.08.19.25.19.17 0 .25.08.25.25 0 .16-.31.35-.94.56-.63.21-1.29.35-2 .44-.92.08-1.45.18-1.57.31-.17.16-.36.25-.56.25-.15 0-.22-.02-.22-.06q0-.07.22-.19.02-.04.02-.06c0-.09-.16-.13-.46-.13-.46 0-.73.1-.82.31-.12.34-.29.44-.5.32-.09-.04-.14-.11-.14-.24 0-.04.01-.09.02-.14v-.25l-.19.19q-.41.5-.65.44-.06-.02-.1-.07c-.02-.02-.03-.05-.03-.09 0-.04.01-.09.03-.16 0-.21-.15-.31-.44-.31h-.44l.31.31c.17.14.25.23.25.28 0 .02-.02.04-.06.04-.04 0-.1-.03-.19-.07-.12-.04-.27-.06-.44-.06-.12 0-.35.06-.68.19-.34.08-.71.12-1.13.12-1.8.09-2.84.21-3.13.38-.42.25-2.43.37-6.02.37-.92 0-1.38.04-1.38.13.11.06.16.12.16.17 0 .05-.05.1-.16.14-.29.17-.48.08-.56-.25-.08-.33-.29-.48-.63-.44-.21 0-.31.11-.31.32 0 .12-.06.2-.19.25q-.09.03-.19.03-.09 0-.18-.03a.592.592 0 0 1-.25-.32.413.413 0 0 0-.25-.25.408.408 0 0 0-.38.07c-.08.04-.13.1-.13.18 0 .21-.06.19-.18-.06-.17-.25-.36-.23-.57.06-.16.25-.31.32-.44.19-.04-.08-.16-.12-.37-.12s-.38-.09-.5-.25c-.21-.25-.4-.3-.57-.13q-.06.07-.15.1-.22.08-.54-.1c-.16-.12-.39-.21-.68-.25-.3-.08-.55-.1-.76-.06-.2.04-.31.1-.31.19 0 .12-.1.14-.31.06q-.32-.13-.37-.33-.01-.04-.01-.08 0-.25.38-.59c.21-.17.31-.17.31 0 0 .16.13.25.38.25.13 0 .2-.04.2-.12 0-.02-.01-.04-.02-.07 0-.17.05-.25.13-.25.12 0 .19.06.19.19 0 .08.35.12 1.06.12.25.04.38.09.38.13a.31.31 0 0 0-.02.08c0 .07.05.11.14.11.13 0 .19-.03.19-.07l-.19-.75c-.04-.15-.06-.28-.06-.38 0-.2.08-.3.25-.3.21 0 .44-.09.69-.25l.19-.13c0-.04-.09-.04-.25 0q-.05.01-.09.03-.34.08-.73-.03c-.25-.12-.48-.17-.69-.12-.41 0-.62-.07-.62-.19 0-.17-.17-.25-.5-.25h-.38l.44-.25c.54-.38 1.48-.56 2.82-.56v-.57c0-.25-.02-.66-.06-1.25v-1.5c0-.79.04-1.25.12-1.37.04-.13.06-.25.06-.38.02-.06.03-.11.03-.15 0-.05-.01-.08-.03-.1-.16-.16-.25-.73-.25-1.68 0-.42.04-.63.13-.63.08 0 .12-.17.12-.5 0-1.33-.14-2.15-.43-2.44-.01-.01-.02-.02-.02-.03 0-.06.07-.18.2-.34.11-.17.17-.3.17-.39 0-.05-.01-.08-.04-.11a.246.246 0 0 1-.05-.15c0-.1.04-.24.11-.41.07-.12.1-.23.1-.33 0-.16-.07-.3-.22-.42-.11-.09-.16-.16-.16-.22 0-.07.05-.12.16-.16q.31-.12.31-1.69c0-.25.06-1.5.19-3.75q.12-2.12.12-5.5c0-1.62-.04-2.48-.12-2.56q-.07-.09-.07-.17c0-.08.06-.15.19-.2q.32-.07.32-3.94c0-2.46.06-3.88.18-4.25Zm32.12 0c.12-.29.27-.29.44 0l.19.31q.37.75.69 3.69c.12.91.2 1.37.25 1.37.08 0 .12-.29.12-.87.08-1.25.29-2.31.63-3.19.29-.92.67-1.37 1.12-1.37.09 0 .13.77.13 2.31v.94c0 .91-.04 1.37-.13 1.37-.15 0-.22.06-.22.18 0 .08.03.19.1.32.08.13.17.21.25.25.09.03.14.1.14.2 0 .03 0 .07-.01.11 0 .17.06.25.18.25.09 0 .13.07.13.19 0 .13.04.25.12.38q.32.31.32 3.06c0 1.75.06 2.75.18 3 .26.41.38 4.52.38 12.31 0 2.92-.1 4.5-.31 4.75-.09.13-.13.2-.13.23 0 .04.04.02.13-.04.08-.04.14.02.19.19.04.12.06.39.06.81v.75c0 .16-.02.31-.06.44-.05.08-.09.14-.13.18h-.13c-.16-.04-.27.04-.31.25 0 .29.09.59.25.88.15.22.23.38.23.47 0 .06-.04.09-.1.09-.1 0-.15.02-.15.06 0 .03.03.07.08.13.05 0 .09.02.13.06.25.17.38.33.38.5 0 .17 1.12.25 3.38.25 6.64.08 10.1.27 10.4.56.16.17.87.25 2.13.25 2.59 0 3.88.11 3.88.32-.04.04-.1.06-.19.06-.25 0-.39.08-.44.25 0 .12.09.19.25.19.17 0 .26.08.26.25 0 .16-.32.35-.94.56-.63.21-1.3.35-2.01.44-.92.08-1.44.18-1.56.31-.17.16-.36.25-.57.25-.14 0-.22-.02-.22-.06 0-.05.08-.11.22-.19.02-.03.02-.05.02-.06 0-.09-.15-.13-.46-.13-.46 0-.73.1-.81.31-.13.34-.29.44-.5.32-.1-.04-.14-.11-.14-.24 0-.04 0-.09.01-.14v-.25l-.19.19c-.33.41-.58.54-.75.37-.02-.02-.03-.05-.03-.09 0-.04.01-.09.03-.16 0-.21-.14-.31-.44-.31h-.43l.31.31c.17.14.25.23.25.28 0 .02-.02.04-.06.04a.56.56 0 0 1-.19-.07c-.13-.04-.27-.06-.44-.06-.12 0-.35.06-.69.19-.33.08-.71.12-1.13.12-1.79.09-2.84.21-3.13.38-.42.25-2.42.37-6.01.37-.92 0-1.38.04-1.38.13.1.06.16.12.16.17 0 .05-.06.1-.16.14-.29.17-.48.08-.56-.25-.09-.33-.3-.48-.63-.44-.21 0-.31.11-.31.32 0 .12-.07.2-.19.25-.13.04-.25.04-.38 0a.643.643 0 0 1-.25-.32.37.37 0 0 0-.25-.25.393.393 0 0 0-.37.07c-.09.04-.13.1-.13.18 0 .21-.06.19-.19-.06-.16-.25-.35-.23-.56.06-.17.25-.31.32-.44.19q-.06-.12-.38-.12a.63.63 0 0 1-.5-.25c-.21-.25-.39-.3-.56-.13-.17.17-.4.17-.69 0-.17-.12-.4-.21-.69-.25-.29-.08-.54-.1-.75-.06-.21.04-.31.1-.31.19 0 .12-.11.14-.32.06q-.31-.13-.36-.33-.01-.04-.01-.08 0-.25.37-.59.2-.16.28-.12.04.03.04.12c0 .16.12.25.37.25.14 0 .2-.04.2-.12 0-.02 0-.04-.01-.07 0-.17.04-.25.13-.25.12 0 .18.06.18.19 0 .08.36.12 1.07.12.25.04.37.09.37.13q-.01.04-.01.08t.02.06q.03.05.12.05c.13 0 .19-.03.19-.07l-.19-.75c-.04-.15-.06-.28-.06-.38q0-.18.09-.26.06-.04.16-.04c.21 0 .44-.09.69-.25l.18-.13c0-.04-.08-.04-.25 0-.25.08-.52.08-.81 0-.25-.12-.48-.17-.69-.12-.42 0-.63-.07-.63-.19 0-.17-.16-.25-.5-.25h-.37l.44-.25c.54-.38 1.48-.56 2.81-.56v-.57c0-.25-.02-.66-.06-1.25v-1.5c0-.79.04-1.25.13-1.37.04-.13.06-.25.06-.38.02-.06.03-.11.03-.15 0-.05-.01-.08-.03-.1-.17-.16-.25-.73-.25-1.68 0-.42.04-.63.12-.63.09 0 .13-.17.13-.5 0-1.33-.15-2.15-.44-2.44-.01-.01-.01-.02-.01-.03 0-.06.07-.18.2-.34.11-.17.17-.3.17-.39 0-.05-.02-.08-.05-.11a.246.246 0 0 1-.05-.15c0-.1.04-.24.12-.41.06-.12.1-.23.1-.33 0-.16-.08-.3-.23-.42-.1-.09-.15-.16-.15-.22 0-.07.05-.12.15-.16q.32-.12.32-1.69c0-.25.06-1.5.18-3.75.09-1.41.13-3.25.13-5.5 0-1.62-.04-2.48-.13-2.56a.343.343 0 0 1-.07-.17c0-.08.07-.15.2-.2.21-.05.31-1.36.31-3.94 0-2.46.06-3.88.19-4.25Zm132.61.06c.08 0 .12-.04.12-.12 0-.09-.04-.13-.12-.13q-.06 0-.1.03-.03.03-.03.1 0 .06.03.09.04.03.1.03Zm3.44 0c.09 0 .13-.04.13-.12 0-.09-.04-.13-.13-.13-.08 0-.12.04-.12.13 0 .08.04.12.12.12Zm-223.24.13q-.11-.22-.28-.29-.22-.08-.54.1-.18.09-.2.21v.03c0 .08.04.16.14.26.25.25.52.23.81-.06.06-.06.09-.12.09-.17 0-.03-.01-.06-.02-.08Zm-1.51.18c.12-.11.18-.2.18-.27 0-.05-.04-.08-.11-.1-.17-.09-.32-.02-.44.19-.09.25-.25.31-.5.18q-.34-.22-.58-.14-.03.01-.05.02-.56.44-1.75.44h-.13c-.08.04-.15.06-.19.06h-.06c-.21 0-.61.16-1.19.5q-.81.44-.94.69l-.06.31.75-.38c.42-.21.9-.35 1.44-.43.46-.09.73-.17.81-.25.13-.13.32-.19.57-.19 1.25-.17 2-.38 2.25-.63Zm225.25-.06c.05 0 .07-.04.07-.12 0-.09-.02-.13-.07-.13-.08 0-.12.04-.12.13 0 .08.04.12.12.12Zm-164.72 0c.08-.17.19-.23.31-.19.17.04.25.15.25.32q0 .18.13.68c.03.09.05.15.05.2 0 .08-.04.12-.11.12l-.13-.07-.19-.06.19.19c.21.26.31.49.31.69 0 .09-.02.17-.06.25q-.01.01-.03.01-.06.04-.16-.01c-.16-.09-.25-.05-.25.12 0 .08-.02.15-.06.19l-.06-.06c-.17-.17-.25-.8-.25-1.88 0-.29.02-.46.06-.5Zm32.12 0c.08-.17.18-.23.31-.19.17.04.25.15.25.32 0 .12.04.35.12.68q.06.13.06.2 0 .06-.03.09t-.09.03l-.12-.07-.19-.06.19.19c.2.26.3.49.3.69 0 .09-.01.17-.05.25-.04.04-.11.04-.19 0-.17-.09-.25-.05-.25.12 0 .08-.02.15-.06.19l-.07-.06c-.16-.17-.25-.8-.25-1.88 0-.29.02-.46.07-.5Zm93.94.31c.16 0 .29-.08.37-.25a.372.372 0 0 0-.19-.18c-.25 0-.37.06-.37.18 0 .17.06.25.19.25Zm-.76 0q.07 0 .1-.03t.03-.09q0-.06-.03-.1-.03-.03-.1-.03c-.08 0-.12.04-.12.13 0 .08.04.12.12.12Zm3.7.25q.03 0 .05-.01.08-.04.08-.24c0-.16-.09-.25-.25-.25-.07.02-.11.06-.11.11 0 .09.08.22.23.39Zm.44-.25c.08 0 .12-.04.12-.12 0-.09-.04-.13-.12-.13-.04 0-.06.04-.06.13 0 .08.02.12.06.12Zm-144.35.07c0-.25-.08-.25-.25 0-.02.06-.03.11-.03.15 0 .04.01.07.03.1.17-.09.25-.17.25-.25Zm163.16.06c.08 0 .13-.04.13-.13 0-.08-.05-.12-.13-.12s-.13.04-.13.12c0 .09.05.13.13.13ZM187.2 7.5c-.04 0-.06-.15-.06-.44V5.93c0-.5-.06-.75-.19-.75q-.07 0-.14.03-.25.13-.25.75c0 .23.03.51.08.85.08.83.23 1.23.44 1.19.08-.05.17-.13.25-.25.03-.06.04-.11.04-.14 0-.08-.05-.11-.17-.11Zm18.98-2.07c0 .13.03.19.07.19.09-.06.14-.15.14-.26 0-.03-.01-.07-.02-.11-.04-.05-.08-.03-.12.06-.04.04-.07.08-.07.12ZM30.01 5.5c0-.09-.04-.13-.12-.13-.05 0-.07.04-.07.13 0 .04.02.06.07.06.08 0 .12-.02.12-.06Zm168.66.5c-.29-.05-1.88-.11-4.76-.19-2.84-.13-4.41-.21-4.7-.25l-.88-.13v1.63c0 .29-.02.91-.06 1.87v2q0 2.12.12 2.13c.05 0 .07.04.07.14q0 .14-.07.42c-.02.13-.04.25-.04.36 0 .23.06.45.17.64.12.21.17.37.17.47 0 .09-.03.14-.11.16-.12.08-.19.35-.19.81 0 .54.09.91.26 1.12.07.08.11.22.11.43 0 .14-.02.31-.05.51v.31c0 .96.16 1.44.5 1.44h.06c.21-.12 1.25-.25 3.13-.37 3.97-.25 6.6-.5 7.9-.75 1.37-.13 2.69-.86 3.94-2.19.5-.54.84-.98 1.01-1.31.16-.34.33-.96.5-1.88.2-1.04.31-1.62.31-1.75 0-.17-.11-.4-.31-.69-.25-.33-.76-.89-1.51-1.68-.71-.84-1.17-1.3-1.38-1.38-.25-.08-.37-.25-.37-.5 0-.21-.27-.35-.82-.44-.54-.08-.94-.25-1.19-.5-.2-.21-.46-.31-.75-.31-.04 0-.21-.02-.5-.06-.25-.04-.44-.06-.56-.06Zm-39.4-.19c0-.17-.04-.25-.13-.25l-.25.37c0 .04.04.07.13.07.17 0 .25-.07.25-.19Zm-96.05.62c.16 0 .25-.1.25-.31s-.13-.31-.38-.31c-.15 0-.23.05-.23.14 0 .09.05.2.17.36l.19.12Zm139.83-.31c.09 0 .13-.04.13-.12 0-.09-.04-.13-.13-.13-.08 0-.12.04-.12.13 0 .08.04.12.12.12Zm.94 0c.09 0 .13-.04.13-.12 0-.09-.04-.13-.13-.13-.08 0-.12.04-.12.13 0 .08.04.12.12.12Zm24.76.06q.07.07.19.07c.11-.06.17-.11.17-.14 0-.02-.01-.04-.04-.05-.04-.04-.11-.06-.19-.06s-.15.02-.19.06c0 .04.02.08.06.12Zm-66.22 2.07c-.55-1.42-.88-2.15-1.01-2.19-.12-.04-.18.02-.18.19l.06.37c.46 1.42 1.46 3.98 3.01 7.69.25.5.37.85.37 1.06 0 .21.06.35.19.44.17.08.29.04.38-.13.04-.06.07-.1.07-.12 0-.04-.07-.02-.2.06-.13 0-.19-.04-.19-.12v-.25c0-.46-.83-2.8-2.5-7Zm-3.57-1.57c.15 0 .22-.03.22-.09 0-.04-.03-.09-.1-.16l-.31-.18c-.13 0-.19.06-.19.18 0 .17.12.25.38.25Zm1.06.63c-.21-.34-.33-.54-.38-.63-.12-.29-.18-.29-.18 0 0 .34.12.57.37.69.21.17.31.21.31.13 0-.05-.04-.11-.12-.19Zm68.92-.38c.1 0 .14-.02.14-.07 0-.07-.06-.17-.2-.3a.176.176 0 0 0-.13-.06c-.04 0-.06.06-.06.18 0 .17.08.25.25.25ZM8.39 7.18c0 .46.27.46.81 0 .26-.26.39-.44.39-.54q0-.02-.01-.04-.02-.03-.06-.04c-.17-.09-.4-.04-.69.12-.29.17-.44.34-.44.5ZM51 6.87c0 .21.02.33.06.38.04.08.08.06.12-.07.07-.16.1-.3.1-.4 0-.11-.03-.18-.1-.22-.04-.04-.08-.02-.12.06-.04.04-.06.13-.06.25Zm107.89.25q.07 0 .1-.03t.03-.09q0-.07-.03-.1t-.1-.03c-.04 0-.06.04-.06.13 0 .08.02.12.06.12Zm.44.44c.08 0 .13-.04.13-.13 0-.08-.05-.12-.13-.12-.04 0-.06.04-.06.12 0 .09.02.13.06.13Zm68.3.06c.08 0 .12-.04.12-.12 0-.09-.04-.13-.12-.13-.09 0-.13.04-.13.13q0 .06.03.09t.1.03Zm1.37 0c.09 0 .13-.04.13-.12 0-.09-.04-.13-.13-.13-.08 0-.12.04-.12.13 0 .08.04.12.12.12Zm-177.88.25c0-.21-.04-.31-.12-.31-.06.08-.09.18-.09.3 0 .06.01.13.02.2.13.04.19-.02.19-.19Zm106.71.06c-.03.06-.04.11-.04.16 0 .1.08.16.23.16.2 0 .35-.13.43-.38.01-.04.02-.08.02-.11 0-.14-.07-.2-.2-.2-.21 0-.36.12-.44.37Zm47.54.07c.08 0 .13-.05.13-.13q0-.06-.04-.09-.03-.03-.09-.03c-.08 0-.12.04-.12.12 0 .08.04.13.12.13Zm-143.34.25c.04 0 .06-.05.06-.13S62.07 8 62.03 8c-.09 0-.13.04-.13.12 0 .08.04.13.13.13Zm.62 0c.09 0 .13-.05.13-.13S62.74 8 62.65 8c-.08 0-.12.04-.12.12 0 .08.04.13.12.13Zm124.3.43c.07-.01.1-.05.1-.11q0-.12-.22-.39c-.08 0-.13.09-.13.25 0 .17.09.25.25.25ZM51 8.68q0-.12-.07-.18-.06-.07-.18-.07c-.03.02-.05.04-.05.08 0 .07.06.19.17.36.08 0 .13-.06.13-.19Zm108.33.88q.19-.53.19-.8 0-.18-.08-.24-.05-.02-.11-.02c-.08 0-.21.08-.37.25q-.32.31-.32 1.37c0 .5.04.75.13.75.08 0 .27-.44.56-1.31Zm-1.88-.69c0 .13.04.19.13.19.08 0 .12-.04.12-.13 0-.08-.02-.14-.06-.18-.04-.05-.08-.05-.13 0-.04.04-.06.08-.06.12Zm-95.23.25c.08 0 .12-.04.12-.12 0-.09-.04-.13-.12-.13-.09 0-.13.04-.13.13 0 .08.04.12.13.12Zm-12.73 1.06c.17 0 .25-.06.25-.18 0-.17-.14-.38-.44-.63q-.37-.44-.62-.44c-.09 0-.13.07-.13.19 0 .13.13.19.38.19.12 0 .19.03.19.11 0 .07-.07.18-.19.33-.25.25-.38.5-.38.75 0 .29.13.31.38.06s.44-.38.56-.38Zm.19-1.06c0 .13.02.19.06.19.06-.06.09-.13.09-.22 0-.05-.01-.1-.02-.16-.05.04-.09.11-.13.19Zm137.34.38c.04.04.1.06.18.06.1-.03.15-.06.15-.1q0-.01-.02-.03l-.13-.06c-.12.04-.18.08-.18.13Zm-26.44.12c0-.04-.04-.06-.12-.06q-.1 0-.12.04-.01.01-.01.02 0 .06.03.09.04.04.1.04c.08 0 .12-.05.12-.13Zm47.8.44c.08 0 .12-.04.12-.13 0-.08-.04-.12-.12-.12-.09 0-.13.04-.13.12 0 .09.04.13.13.13ZM76.37 11.5c.02-.04.03-.08.03-.13 0-.16-.12-.37-.34-.62l-.44-.57.06.63q.05.75.34.86.05.01.1.01c.08 0 .17-.06.25-.18Zm32.12 0c.01-.04.02-.08.02-.13 0-.16-.11-.37-.34-.62l-.44-.57.07.63c.04.58.18.87.44.87.08 0 .16-.06.25-.18Zm78.59-.94c-.1.14-.14.24-.14.3q0 .03.01.05.02.02.07.02c.21.04.37-.04.5-.25.03-.05.05-.09.05-.13 0-.05-.04-.09-.12-.12-.16-.08-.29-.04-.37.13Zm-26.31.81c-.21.08-.39-.04-.56-.37-.13-.21-.23-.28-.32-.19 0 .25-.52 1.41-1.56 3.5-.5 1.12-1.36 3.31-2.57 6.56-.04.13-.25.67-.63 1.63-.33.91-.58 1.58-.75 2-.41 1.16-.62 1.85-.62 2.06 0 .08.1.12.31.12.83 0 1.44-.18 1.82-.56.21-.21.46-.25.75-.12.33.08.98.12 1.94.12.5 0 .75-.02.75-.06 1-.04 2.13-.06 3.38-.06 2.26 0 3.39.02 3.39.06 0 .04.1.06.31.06h.69c.25-.04.4-.08.44-.12 0-.17-.17-.65-.5-1.44-.38-.88-.65-1.31-.82-1.31-.12 0-.23.12-.31.37-.01.02-.02.04-.02.05 0 .05.05.08.14.08.17 0 .25.06.25.18 0 .34-.14.4-.43.19l-.38-.44a.83.83 0 0 1-.06-.28c0-.14.08-.22.25-.22.29 0 .44-.1.44-.31 0-.33-.13-.77-.38-1.31s-.46-.81-.63-.81q-.18 0-.43-.38c-.13-.25-.28-.52-.44-.81-.13-.29-.21-.46-.25-.5-.21-.21-.46-.81-.75-1.81-.3-1.05-.53-1.57-.69-1.57-.09 0-.13-.08-.13-.25 0-.16-.06-.29-.19-.37-.13-.08-.19-.16-.19-.24 0-.04.02-.09.07-.14.05-.07.08-.14.08-.22 0-.11-.05-.22-.14-.34-.26-.25-.38-.46-.38-.62 0-.13-.06-.19-.19-.19-.08 0-.14-.06-.19-.19q-.03-.09-.03-.2 0-.11.03-.24c.09-.21.17-.37.25-.5l.07-.18c-.17.08-.34.04-.5-.13-.12-.11-.17-.21-.17-.31 0-.04.01-.09.04-.13q.02-.02.02-.03c0-.02-.03-.03-.08-.03h-.13Zm-2.63 1q.31-.48.31-.93 0-.07-.01-.13-.01-.13-.05-.25c0-.09-.04-.13-.12-.13-.21 0-.53.61-.94 1.82-.38 1.2-.57 2.02-.57 2.43v.13c.09 0 .23-.23.44-.69.13-.29.25-.62.38-1 .12-.42.31-.83.56-1.25Zm-151-1.12c.08 0 .12-.05.12-.13q0-.06-.03-.09T7.14 11h-.03q-.04.02-.04.12c0 .08.02.13.07.13Zm201.61-.19c0-.04-.04-.06-.12-.06-.09 0-.13.02-.13.06 0 .08.04.12.13.12.08 0 .12-.04.12-.12Zm-179.62.25c0 .08.02.12.07.12q.11-.07.13-.17.01-.02.01-.05c0-.03-.01-.06-.02-.09-.04-.04-.08-.02-.12.06q-.07.07-.07.13Zm18.8 0c0 .12.02.19.06.19.05-.06.08-.13.08-.23 0-.04 0-.09-.02-.15-.04.04-.08.1-.12.19Zm139.34.31q.06.06.18.06c.12-.05.17-.1.17-.14 0-.01-.01-.03-.04-.04-.04-.05-.1-.07-.19-.07-.08 0-.14.02-.19.07 0 .04.03.08.07.12Zm-141.29.63q.22-.22.22-.32v-.03q-.04-.06-.22-.03c-.25 0-.41.08-.5.25 0 .08.02.15.07.19.04.04.1.06.18.06.13-.04.21-.08.25-.12Zm30.08.25q.07-.22.07-.35c0-.14-.07-.22-.2-.22-.08.04-.17.13-.25.25q-.06.13-.06 3.57c0 5.75.06 8.75.19 9 .25.37.39.37.43 0 .03-.07.05-.15.05-.23q0-.23-.17-.52-.38-.72-.38-1.08 0-.17.09-.26.09-.1.29-.1c.25 0 .38-.09.38-.25 0-.13-.13-.19-.38-.19-.21 0-.31-.19-.31-.56 0-.38.08-.38.25 0 .08.25.12.23.12-.06v-.44c-.03-.21-.04-.39-.04-.54 0-.29.06-.47.17-.52.12-.09.19-1.25.19-3.5s-.07-3.38-.19-3.38q-.32 0-.38-.06c0-.09.04-.27.13-.56Zm32.11 0c.05-.15.07-.26.07-.35q0-.12-.06-.17-.05-.05-.13-.05c-.09.04-.17.13-.25.25-.04.09-.07 1.27-.07 3.57 0 5.75.07 8.75.19 9q.21.3.32.27.09-.02.12-.27c.03-.07.04-.15.04-.23 0-.15-.05-.33-.16-.52q-.38-.72-.38-1.08 0-.17.09-.26.09-.1.29-.1c.25 0 .37-.09.37-.25 0-.13-.12-.19-.37-.19-.21 0-.32-.19-.32-.56 0-.38.09-.38.25 0 .09.25.13.23.13-.06v-.44c-.03-.21-.04-.39-.04-.54 0-.29.05-.47.16-.52.13-.09.19-1.25.19-3.5s-.06-3.38-.19-3.38c-.21 0-.33-.02-.37-.06 0-.09.04-.27.12-.56Zm-101.41.75-.06-1.07v.57l.06.56v-.06Zm39.48-.69c-.05.1-.07.19-.07.26 0 .08.02.13.07.18.12.04.27-.05.43-.25.02-.09.03-.16.03-.22a.35.35 0 0 0-.03-.16c-.16-.17-.31-.1-.43.19Zm13.97.06c.08 0 .13-.04.13-.12 0-.09-.05-.13-.13-.13-.04 0-.06.04-.06.13 0 .08.02.12.06.12ZM231.38 14c.09-.84.15-1.25.19-1.25.09 0 .13.45.13 1.37 0 .88-.06 1.31-.19 1.31-.08-.04-.13-.52-.13-1.43Zm-185.96.12c.33-.33.5-.58.5-.75 0-.17-.21-.33-.62-.5l-.41-.11c.05.02.12.08.22.17.15.14.23.24.23.32 0 .08-.1.12-.3.12h-.43c-.38 0-.92.44-1.63 1.31q-.19.25-2.45 2.63c-1.5 1.54-2.4 2.56-2.69 3.06-.83.83-1.25 1.38-1.25 1.63 0 .04.02.06.06.06.06.05.08.13.08.22 0 .05 0 .1-.02.15v.5c0 .17.05.25.13.25.12 0 .19-.06.19-.18q0-.19 2.38-2.57c2.21-2.21 3.38-3.56 3.5-4.06.06-.17.09-.28.09-.33 0-.03-.01-.04-.02-.04 0-.05-.09 0-.25.12-.25.17-.38.19-.38.06 0-.21.11-.37.31-.5.25-.12.44-.04.57.25.12.34.33.27.62-.18q.32-.45.37-.92.02-.11.02-.23 0-.08-.01-.17a1.69 1.69 0 0 1-.03-.3c0-.26.09-.38.28-.38.15 0 .22.07.22.22 0 .06-.01.13-.03.21-.01.08-.02.14-.02.19 0 .17.05.25.14.25.13 0 .34-.17.63-.5Zm-16.16-.81c.08 0 .12-.04.12-.13 0-.08-.04-.12-.12-.12-.08 0-.13.04-.13.12 0 .09.05.13.13.13Zm30.76.44c.05 0 .09-.07.13-.19.04-.13.06-.23.06-.31.02-.05.02-.08.02-.11q0-.04-.02-.06-.02-.02-.06-.02c-.17 0-.25.1-.25.31 0 .25.04.38.12.38Zm127.37-.07c0-.37-.04-.58-.12-.62l-.13.19q-.02.12-.02.23c0 .15.03.28.08.39.09.13.13.21.13.25l.06-.44Zm19.48-.31c0-.04-.04-.06-.12-.06-.09 0-.13.02-.13.06q0 .06.03.09.04.04.1.04c.08 0 .12-.05.12-.13Zm20.51.75c.08 0 .12-.04.12-.12 0-.09-.04-.13-.12-.13-.05 0-.07.04-.07.13 0 .08.02.12.07.12Zm-223.06.63c.04 0 .06-.05.06-.13s-.02-.12-.06-.12c-.09 0-.13.04-.13.12 0 .08.04.13.13.13Zm.81.25c-.08-.34-.19-.5-.31-.5q-.12 0-.18.05-.06.06-.06.18 0 .2.18.58l.31.44c.21.16.31.37.31.62.04.21.15.4.32.56q.5.5.5.75c0 .29.14.5.43.63.26.11.39.14.39.09 0-.01 0-.02-.01-.03L6.76 18c-.92-1.34-1.46-2.34-1.63-3Zm158.09.62-.44-.69c0 .21.06.4.18.57.17.25.26.29.26.12Zm63.91.25c.08.08.16.02.25-.19v-.43c-.05 0-.11.08-.19.25-.06.13-.09.24-.09.3q0 .05.03.07Zm-42.24-.25c0-.17-.09-.25-.25-.25-.17 0-.25.08-.25.25 0 .13.08.19.25.19.16 0 .25-.06.25-.19Zm-28.38.88c.13-.42.19-.71.19-.88 0-.12-.02-.19-.06-.19-.17 0-.34.32-.5.94-.13.42-.21.71-.25.88 0 .16.04.25.12.25.17 0 .34-.34.5-1Zm31.13-.32c0-.25-.02-.37-.06-.37l-.25.56.06.13c.17 0 .25-.11.25-.32Zm43.81.5c0-.58.02-.87.06-.87.17 0 .25.48.25 1.44 0 .37-.04.56-.12.56-.13 0-.19-.38-.19-1.13Zm-171.24-.31c.08 0 .13-.04.13-.12 0-.09-.05-.13-.13-.13-.04 0-.06.04-.06.13 0 .08.02.12.06.12Zm106.01 2.38a.45.45 0 0 0-.06-.19c-.04-.09-.15-.4-.31-.94-.13-.58-.28-.96-.44-1.12-.26-.26-.39-.34-.39-.24q0 .02.01.05l.44.69q.07 0 .1.03.01.02.01.06c0 .03-.01.09-.05.16-.02.02-.03.06-.03.12 0 .14.07.39.22.75q.31.69.5.69c.02 0 .03-.01.03-.02s-.01-.02-.03-.04Zm61.16-1.63c.08 0 .12-.04.12-.12 0-.09-.04-.13-.12-.13-.05 0-.07.04-.07.13 0 .08.02.12.07.12Zm-39.8 1.5c0-1.04-.06-1.56-.19-1.56-.08 0-.12.23-.12.69 0 1.45.08 2.18.25 2.18.04 0 .06-.43.06-1.31ZM60.15 17.25c0 .16.04.2.12.12.05-.04.07-.08.07-.12q0-.07-.07-.13c-.04-.04-.08-.04-.12 0v.13Zm-29.01 1.56c.14 0 .2-.17.2-.5 0-.28-.04-.68-.14-1.19l-.19.38c-.04.16-.1.35-.18.56q-.04.15-.04.29 0 .15.04.27c.04.13.14.19.31.19Zm.62-1.13c0 .13.05.19.13.19s.13-.04.13-.12c0-.09-.03-.15-.07-.19-.04-.04-.08-.04-.12 0-.04.04-.07.08-.07.12Zm132.58.88c0-.25-.1-.52-.31-.81-.17-.21-.25-.25-.25-.13q-.01.04-.01.09c0 .17.09.41.26.72.21.34.31.38.31.13Zm-8.58-.63c-.08 0-.35.63-.81 1.88-.35 1.04-.53 1.68-.53 1.91 0 .04.01.07.03.09.91-2.04 1.37-3.29 1.37-3.75 0-.09-.02-.13-.06-.13Zm75.75 1.25c0-.79.06-1.18.19-1.18.08 0 .12.2.12.62 0 1.08-.08 1.63-.25 1.63-.04 0-.06-.36-.06-1.07Zm-199.56-.56q.03-.03.04-.06.03-.04.03-.1 0-.09-.07-.21c-.08 0-.12.08-.12.25l.12.12Zm153.06.44c.04 0 .06-.04.06-.13 0-.08-.02-.12-.06-.12-.08 0-.12.04-.12.12 0 .09.04.13.12.13Zm-153.75.75c-.25-.54-.41-.81-.5-.81v1c.04.66.09 1.41.13 2.25.04.79.06 1.31.06 1.56 0 1.5.06 2.25.19 2.25.21 0 .31-.86.31-2.56 0-.55-.04-.86-.12-.94h-.01q-.06-.01-.06-.31l.13-.75c.07-.25.1-.49.1-.72 0-.35-.08-.67-.23-.97Zm153.5-.31-.19-.44h-.06c-.07 0-.1.02-.1.06 0 .06.08.16.23.31l.12.07Zm-153-.19c0-.17-.08-.15-.25.06l-.06.13c-.01.02-.02.04-.02.06 0 .03.03.03.08 0 .17-.09.25-.17.25-.25Zm30.46.37c.08 0 .12-.04.12-.12 0-.09-.04-.13-.12-.13-.09 0-.13.04-.13.13 0 .08.04.12.13.12Zm122.67.32c0-.17-.09-.25-.25-.25-.17 0-.25.12-.25.37s.1.29.31.13c.12-.09.19-.17.19-.25Zm-108.39.25c0-.09-.05-.13-.13-.13s-.13.04-.13.13c0 .04.05.06.13.06s.13-.02.13-.06Zm32.11 0c0-.09-.04-.13-.12-.13-.09 0-.13.04-.13.13 0 .04.04.06.13.06.08 0 .12-.02.12-.06Zm43.77 0c0-.09-.02-.13-.06-.13-.09 0-.13.04-.13.13q0 .01.01.02.02.04.12.04c.04 0 .06-.02.06-.06Zm79.51 2.56c-.21-.04-.32-.46-.32-1.25 0-.63.07-.94.19-.94.04 0 .13.4.25 1.19.03.23.04.43.04.58q0 .38-.11.42h-.05ZM166.85 21c.08 0 .12-.05.12-.13s-.04-.12-.12-.12c-.09 0-.13.04-.13.12 0 .08.04.13.13.13Zm.56 1-.44-.69c0 .21.07.39.19.56.17.25.25.29.25.13Zm-105.32-.38c0 .13.04.19.13.19.08 0 .12-.04.12-.13 0-.08-.02-.14-.06-.18-.04-.05-.08-.05-.13 0-.04.04-.06.08-.06.12Zm.25.56c0-.04-.04-.06-.12-.06-.09 0-.13.02-.13.06 0 .09.04.13.13.13.08 0 .12-.04.12-.13Zm-21.62.75a.09.09 0 0 0 .03-.07q0-.16-.34-.55c-.17-.25-.25-.23-.25.06 0 .17.06.33.19.5.16.13.29.15.37.06Zm-21.12-.62c0-.04-.02-.06-.06-.06-.08 0-.13.02-.13.06 0 .08.05.12.13.12.04 0 .06-.04.06-.12Zm147.81.25c0 .12.02.19.06.19.06-.06.09-.13.09-.23 0-.04-.01-.09-.02-.15a.62.62 0 0 0-.13.19Zm-131.2.75c-.12.04-.21-.06-.25-.31-.04-.25-.08-.38-.12-.38-.05.04-.15.23-.32.56-.08.21-.16.38-.25.5-.08.13-.14.17-.19.13-.04-.04-.35.25-.93.87-.55.67-.82 1.23-.82 1.69 0 .17.06.25.19.25h.06l.06-.06c.25-.09.38-.17.38-.25q0-.25 1.19-1.44c.84-.92 1.25-1.46 1.25-1.62h-.06c-.04 0-.1.02-.19.06Zm26.07-.06c.04-.05.06-.1.06-.16s-.02-.14-.06-.22c-.08 0-.13.08-.13.25l.13.13Zm105.32-.07q0 .13.06.17.03.02.07.02c.08 0 .12-.04.12-.12 0-.09-.02-.15-.06-.19-.04-.04-.09-.04-.13 0-.04.04-.06.08-.06.12Zm-91.54.13q0 .17.05.18 0 .01.01.01l.06-.38v-.06c-.08.04-.12.12-.12.25Zm32.11 0c0 .12.02.19.07.19l.06-.38v-.06c-.09.04-.13.12-.13.25Zm-66.76.94.38.12c.04 0 .06-.04.06-.12 0-.13-.15-.32-.44-.57-.25-.29-.46-.43-.62-.43-.05 0-.07.04-.07.12 0 .42.23.71.69.88Zm142.98-.82c0 .13.02.19.06.19.09-.03.14-.1.14-.2 0-.03-.01-.07-.02-.11-.04-.04-.08-.04-.12 0-.04 0-.06.04-.06.12Zm46.93 1.94c.13-1.21.29-1.81.5-1.81.09 0 .13.44.13 1.31 0 .83-.13 1.25-.38 1.25-.17 0-.26-.17-.26-.52q0-.1.01-.23Zm-197.99-1.5c0 .13.02.19.06.19.06-.06.09-.13.09-.22 0-.05-.01-.1-.02-.16-.05.04-.09.11-.13.19Zm28.76.06c0-.04-.02-.06-.06-.06-.09 0-.13.02-.13.06 0 .09.04.13.13.13.04 0 .06-.04.06-.13Zm.06 2.19c.13-.12.19-.35.19-.69 0-.33-.06-.62-.19-.87-.04-.09-.08-.04-.12.12-.04.17-.06.38-.06.63 0 .54.06.81.18.81Zm-20.05-.94c.04 0 .06-.01.06-.04 0-.05-.08-.17-.25-.33-.04-.04-.08-.06-.12-.06l.25.43h.06Zm145.35.75c.11-.18.16-.34.16-.45 0-.12-.05-.19-.16-.23-.08-.05-.14.02-.18.18-.04.09-.07.23-.07.44 0 .29.09.31.25.06Zm-111.33-.31c.08 0 .12-.04.12-.12 0-.09-.04-.13-.12-.13-.04 0-.06.04-.06.13 0 .08.02.12.06.12Zm32.12 0c.08 0 .12-.04.12-.12 0-.09-.04-.13-.12-.13-.05 0-.07.04-.07.13 0 .08.02.12.07.12Zm-65.76.81c.08.09.14.11.18.07.01-.01.02-.03.02-.05 0-.1-.07-.31-.2-.64-.21-.34-.32-.4-.32-.19 0 .13.02.27.07.44l.25.37Zm21.87-.62.12.19c.04-.07.06-.12.06-.18v-.04q-.02-.05-.06-.1c-.04-.04-.08-.04-.12 0v.13Zm11.89.5c0-.42-.16-.46-.5-.13-.08.09-.12.34-.12.75v.44c.04 0 .12-.06.25-.19l.06-.12c.21-.29.31-.54.31-.75Zm32.12 0c0-.42-.17-.46-.5-.13-.08.09-.13.34-.13.75v.44c.05 0 .13-.06.25-.19l.07-.12c.21-.29.31-.54.31-.75Zm-66.26.37-.25-.43h-.06c-.04 0-.07.01-.07.04 0 .05.09.16.26.33.04.04.08.06.12.06Zm189.47-.06c.17-.33.25-.25.25.25v1c0 1-.08 1.5-.25 1.5-.05 0-.08.02-.08.05 0 .04.05.1.15.2.11.14.17.32.17.53 0 .18-.04.37-.11.6q-.04.23-.14.27-.09.03-.24-.09c-.15-.15-.22-.31-.22-.48 0-.06.01-.13.03-.2.05-.09.11-.67.19-1.75.09-1.13.17-1.75.25-1.88Zm-73.43.31c0 .13.23.19.69.19 1.55 0 2.32-.15 2.32-.44 0-.12-.44-.18-1.32-.18-1.13.04-1.69.18-1.69.43Zm9.96-.12c-.12-.21-1.25-.31-3.38-.31-2.09 0-3.13.08-3.13.25 0 .16.12.29.37.37.29.08.57.1.82.06.29-.08.44-.18.44-.31.04-.08.08-.1.12-.06.04.04.13.1.25.19.13.04.23.06.31.06.05 0 .17.02.38.06.25 0 .56.02.94.06.38.04.73.07 1.06.07.38.04.8.06 1.26.06.46 0 .69-.06.69-.19 0-.04-.05-.15-.13-.31Zm-105.76.5c0-.25-.08-.42-.25-.5-.08-.04-.12-.02-.12.06-.05.04-.07.13-.07.25 0 .33.07.5.19.5.17 0 .25-.1.25-.31Zm-19.24.37c-.08-.25-.21-.31-.37-.18-.09.08-.13.16-.13.23s.04.14.13.2c.04.04.1.07.18.07.15 0 .23-.06.23-.16 0-.05-.01-.1-.04-.16Zm21.25 0c0-.04-.05-.06-.13-.06s-.13.02-.13.06q0 .06.04.1.03.03.09.03c.08 0 .13-.04.13-.13Zm-2.01.44c0-.21-.08-.31-.25-.31-.08 0-.12.06-.12.19.04.08.08.18.12.31.04.12.08.19.13.19.08 0 .12-.13.12-.38Zm125.43.19c.08 0 .12-.04.12-.13 0-.08-.04-.12-.12-.12-.09 0-.13.04-.13.12 0 .09.04.13.13.13Zm-144.6.19c.08 0 .12-.05.12-.13s-.04-.12-.12-.12c-.09 0-.13.04-.13.12 0 .08.04.13.13.13Zm18.29.43c0-.21-.02-.33-.06-.37-.04-.13-.12-.09-.25.12-.03.12-.05.22-.05.3 0 .13.04.22.11.27.09.04.15.04.19 0 .04-.09.06-.19.06-.32Zm-30.32-.25.12.19a.27.27 0 0 0 .07-.17c0-.05-.02-.1-.07-.14-.04-.04-.08-.04-.12 0v.12Zm138.03.25c0-.16-.07-.25-.19-.25-.17 0-.25.09-.25.25 0 .13.08.19.25.19.12 0 .19-.06.19-.19Zm-.63.07c0-.05-.04-.07-.13-.07-.08 0-.12.02-.12.07 0 .08.04.12.12.12.09 0 .13-.04.13-.12Zm-106.2.68c-.04-.04-.06-.1-.06-.18v-.25c0-.09-.02-.13-.06-.13-.19 0-.29.13-.29.39 0 .08.01.18.04.3.08.33.2.44.37.31.06-.04.09-.1.09-.17s-.03-.16-.09-.27Zm104.07-.31c.08 0 .13-.04.13-.12 0-.09-.05-.13-.13-.13s-.13.04-.13.13c0 .08.05.12.13.12Zm-.38-.12-.31-.07-.12.13c.16.08.31.06.43-.06ZM45.04 30.68c.14 0 .21-.03.21-.11 0-.06-.05-.15-.14-.26a.549.549 0 0 0-.19-.06c-.08 0-.13.06-.13.18 0 .17.09.25.25.25Zm-21.3-.06c.04 0 .06-.04.06-.12 0-.09-.02-.13-.06-.13-.09 0-.13.04-.13.13 0 .08.04.12.13.12Zm.87 0c.04 0 .07-.04.07-.12 0-.09-.03-.13-.07-.13-.08 0-.12.04-.12.13 0 .08.04.12.12.12Zm37.61.06c.08 0 .12-.04.12-.12 0-.09-.04-.13-.12-.13-.09 0-.13.04-.13.13 0 .08.04.12.13.12Zm-40.36 0c0-.04-.04-.06-.13-.06-.08 0-.12.02-.12.06 0 .09.04.13.12.13.09 0 .13-.04.13-.13Zm9.47.13c0-.09-.02-.13-.07-.13-.08 0-.12.04-.12.13 0 .04.04.06.12.06.05 0 .07-.02.07-.06Zm30.01.31c.07 0 .1-.02.1-.06q0-.09-.23-.31l-.12-.07.06.07c0 .08.04.16.13.25l.06.12Zm86.65-.31c0-.09-.04-.13-.12-.13-.09 0-.13.04-.13.13 0 .04.04.06.13.06.08 0 .12-.02.12-.06Zm-124.13.94c-.37-.84-.65-1.07-.81-.69-.04.12-.07.33-.07.62.05.67.19 1.02.44 1.07.09-.05.15-.13.19-.25 0-.13.04-.13.13 0l.06.18c.12.42.23.44.31.07.02-.06.03-.12.03-.18 0-.21-.09-.48-.28-.82Zm133.15-.63c0-.21.42-.27 1.26-.19.79 0 1.19.13 1.19.38 0 .12-.09.19-.25.19-.17 0-.4-.03-.69-.07-.3-.08-.5-.12-.63-.12-.58 0-.88-.06-.88-.19Zm-108.77.31c.16-.04.24-.1.24-.17 0-.06-.06-.13-.18-.2-.33-.21-.54-.21-.62 0 0 .41.18.54.56.37Zm14.1.25c0-.41-.08-.64-.25-.68-.12 0-.19.18-.19.56 0 .46.07.69.19.69.17 0 .25-.19.25-.57Zm91.85-.25c-.29.17-.5.19-.62.07a.208.208 0 0 1-.07-.15c0-.07.06-.15.19-.23.13-.08.3-.1.5-.06l.51.12-.51.25Zm33.2-.12c0 .12.02.19.06.19.1-.04.15-.1.15-.2 0-.04-.01-.08-.02-.12-.04-.04-.08-.04-.13 0-.04 0-.06.04-.06.13Zm-161.71.19c.08 0 .12-.05.12-.13s-.04-.12-.12-.12c-.04 0-.06.04-.06.12 0 .08.02.13.06.13Zm5.58.31q.02 0 .03-.01.04-.02.04-.12c0-.08-.02-.12-.07-.12-.08 0-.12.04-.12.12 0 .09.04.13.12.13Zm153.25 0c.08 0 .13-.04.13-.13 0-.08-.05-.12-.13-.12s-.12.04-.12.12c0 .09.04.13.12.13Zm46.69.56c.04-.42.1-.67.18-.75.09-.08.17-.02.26.19.04.16.06.41.06.75q0 2.1-.41 2.18-.01.01-.03.01h-.06c-.04-.05-.07-.12-.07-.24 0-.11.03-.26.07-.45.05-.25.08-.43.08-.53q0-.08-.02-.1c-.08-.07-.11-.23-.11-.47 0-.16.01-.36.05-.59Zm-187.85-.44c.09.09.19.09.32 0a.623.623 0 0 1-.19-.12c-.11 0-.17.02-.17.05 0 .02.02.04.04.07Zm125.57.25q-.07-.18-.07-.28 0-.06.03-.08.02-.01.04-.01c.08 0 .18.08.31.25.17.12.29.27.37.44.06.08.09.14.09.19 0 .02-.01.04-.02.06q-.13.09-.25.08-.28-.03-.5-.65Zm18.16.07q.06 0 .09-.04.03-.03.03-.09t-.03-.09q-.03-.03-.09-.03c-.08 0-.13.04-.13.12 0 .08.05.13.13.13Zm-140.59.43c.06 0 .1-.02.1-.06 0-.06-.08-.16-.23-.31-.04-.04-.08-.06-.12-.06l.18.43h.07Zm14.97-.37c0-.04-.04-.06-.12-.06-.08 0-.13.02-.13.06 0 .08.05.12.13.12s.12-.04.12-.12Zm14.35 0c0-.04-.05-.06-.13-.06q-.03 0-.05.01-.01.02-.01.05 0 .1.04.12h.02c.08 0 .13-.04.13-.12Zm32.11 0c0-.04-.04-.06-.12-.06-.04 0-.07.02-.07.06 0 .08.03.12.07.12.08 0 .12-.04.12-.12Zm-58.8.56-.19-.44h-.06c-.07 0-.1.02-.1.06 0 .06.07.17.22.32.04.04.08.06.13.06Zm135.08-.31c0-.04-.04-.06-.13-.06-.08 0-.12.02-.12.06q0 .06.03.09t.09.03c.09 0 .13-.04.13-.12Zm-122.74.19c0-.05-.08-.07-.25-.07-.12 0-.18.07-.18.19.04.17.18.13.43-.12Zm-37.79.62-.25-.12c-.33-.17-.5-.19-.5-.07 0 .17.06.25.19.25.12 0 .17.05.17.16 0 .08-.03.19-.11.34-.08.21-.21.29-.37.25-.13-.04-.19-.02-.19.07l.06.25c-.04.12-.08.18-.12.18-.21-.08-.34-.06-.38.07-.05.06-.08.11-.08.16 0 .1.13.15.39.15.3.04.53 0 .69-.13.34-.16.5-.29.5-.37v-1.19Zm147.63 3.5c0 .08.02.27.06.56.04.29.06.5.06.63q.02.06.02.12c0 .07-.03.13-.08.19-.13 0-.27-.21-.44-.62-.08-.25-.11-.44-.11-.57 0-.09.01-.15.05-.18.01-.02.01-.03.01-.05 0-.06-.04-.17-.14-.33a3.95 3.95 0 0 0-.37-.69l-.25-.5c-.21-.54-.4-1.04-.57-1.5-.15-.32-.22-.55-.22-.66 0-.05.01-.08.03-.09.13-.08.36.07.69.44.21.21.31.38.31.52 0 .09-.04.17-.12.23-.05.05-.07.09-.07.14 0 .08.07.16.2.24.17.03.26.21.26.53q0 .1-.01.22c-.01.07-.01.14-.01.21 0 .32.08.5.26.54.29.04.44.25.44.62ZM62.28 34.12c.04.04.08.02.12-.06 0-.29-.1-.54-.31-.75-.14 0-.2.05-.2.16 0 .1.04.23.14.4.08.13.17.21.25.25Zm141.46 0c.09 0 .13-.04.13-.12 0-.09-.04-.13-.13-.13-.08 0-.12.04-.12.13 0 .08.04.12.12.12Zm-156.88 0c.09.08.19.08.31 0a.698.698 0 0 1-.18-.12c-.11 0-.17.01-.17.05q0 .03.04.07Zm126.82.31c.08 0 .12-.04.12-.12 0-.09-.04-.13-.12-.13-.05 0-.07.04-.07.13 0 .08.02.12.07.12Zm-123 .63c-.25 0-.39-.13-.44-.38-.08-.41-.12-.41-.12 0q0 .32.44.75c.29.29.44.29.44 0 0-.25-.11-.37-.32-.37Zm-30.83.5c.39-.57.59-.89.59-.98 0-.01-.01-.02-.02-.02-.09 0-.28.21-.57.62-.33.46-.62.73-.87.82-.23.06-.35.15-.35.27 0 .03.01.06.03.1.13.17.27.21.44.13.17-.13.42-.44.75-.94Zm167.35-.75c0 .12.03.19.07.19.05-.06.08-.13.08-.23 0-.04-.01-.09-.02-.15-.04.04-.08.1-.13.19Zm-123.29.25.12.19c.04-.07.06-.12.06-.18 0-.05-.02-.1-.06-.14-.04-.04-.08-.04-.12 0v.13Zm-42.43 2.37c.43-.6.65-1.1.65-1.5a.99.99 0 0 0-.02-.18l-.19-.63c-.5 1.5-1.19 2.52-2.07 3.06-.1.07-.15.12-.15.17 0 .06.05.1.15.15.17.08.27.12.32.12.25 0 .68-.4 1.31-1.19Zm165.85-1.93c.04 0 .06-.05.06-.13s-.02-.12-.06-.12c-.08 0-.13.04-.13.12 0 .08.05.13.13.13Zm-13.09-.07q0-.06-.03-.09t-.1-.03c-.04 0-.06.04-.06.12 0 .04.02.07.06.07q.1 0 .13-.05v-.02Zm-97.12.38c0-.17-.08-.15-.25.06l-.06.13c-.04.05-.05.08-.05.11s.04.04.11.01c.17-.08.25-.19.25-.31Zm32.12 0c0-.17-.09-.15-.25.06l-.07.13c-.03.05-.05.08-.05.11s.04.04.12.01c.16-.08.25-.19.25-.31Zm65.13.37c.08 0 .12-.04.12-.12 0-.09-.04-.13-.12-.13q-.07 0-.1.03-.03.04-.03.1c0 .08.04.12.13.12ZM61.9 36.5c.13-.13.19-.23.19-.32-.04-.12-.1-.16-.19-.12-.04.04-.08.12-.12.25q-.09.21-.09.28c0 .02.01.03.02.03l.19-.12Zm-.75-.13c-.08.17-.12.29-.12.38.04.12.12.14.25.06.11-.09.16-.18.16-.28q0-.08-.04-.16c-.04-.21-.12-.21-.25 0Zm-43.3.63c0 .08.02.12.06.12.09-.06.14-.14.14-.22 0-.03 0-.06-.01-.09-.05-.04-.09-.04-.13 0-.04.04-.06.1-.06.19Zm190.4.31c0 .12.02.19.06.19.1-.04.15-.1.15-.2 0-.04-.01-.08-.02-.12-.04-.04-.08-.04-.13 0-.04 0-.06.04-.06.13Zm-158.13.06c0-.04-.04-.06-.13-.06-.08 0-.12.02-.12.06 0 .08.04.13.12.13.09 0 .13-.05.13-.13Zm125.25.81a1.31 1.31 0 0 1-.32-.43l-.12-.25c-.02 0-.03.04-.03.12 0 .08.01.21.03.38.08.33.19.68.31 1.06.13.33.23.5.32.5h.06c.04-.02.06-.09.06-.19s-.02-.25-.06-.44c-.04-.41-.13-.66-.25-.75Zm31.5.38c0-.34-.18-.59-.56-.75-.33-.17-.5-.19-.5-.06 0 .04.04.12.12.25.09.29.3.56.63.81.17 0 .27-.09.31-.25Zm-145.41-.75c0-.04-.04-.06-.12-.06-.08 0-.13.02-.13.06 0 .08.05.12.13.12s.12-.04.12-.12Zm13.91.37c0 .09.02.13.06.13.09-.06.14-.14.14-.23 0-.02 0-.05-.01-.08-.05-.05-.09-.03-.13.06-.04.04-.06.08-.06.12Zm32.11 0c0 .09.02.13.07.13q.11-.08.13-.17.01-.03.01-.06a.31.31 0 0 0-.02-.08c-.04-.05-.08-.03-.12.06-.05.04-.07.08-.07.12Zm-47.33.07c0-.05-.04-.07-.13-.07-.08 0-.12.02-.12.07 0 .08.04.12.12.12.09 0 .13-.04.13-.12Zm2.19.12c0-.12-.08-.19-.25-.19-.03.02-.04.04-.04.08 0 .07.05.19.17.36.08 0 .12-.08.12-.25Zm124.99.25-.06-.31-.13.12c-.12.09-.19.19-.19.32 0 .12.07.18.19.18.13 0 .19-.1.19-.31Zm41.55.25c0-.17-.06-.29-.19-.37-.17-.09-.25-.07-.25.06.04.12.19.23.44.31Zm-178.01.06c-.08-.29-.23-.39-.44-.31-.08.04-.12.1-.12.19 0 .25.18.5.56.75.13.04.19 0 .19-.13-.04-.08-.11-.25-.19-.5Zm2.57.13c0-.17-.04-.25-.13-.25l-.25.37c0 .04.04.07.13.07.17 0 .25-.07.25-.19Zm8.65 0c0 .08.02.12.06.12.1-.06.14-.13.14-.22 0-.03 0-.06-.01-.09-.04-.04-.08-.02-.13.06-.04.04-.06.09-.06.13Zm-42.68.25c-.08.04-.21 0-.37-.13q-.15-.14-.25-.12-.08.02-.13.12-.1.19-.1.32c0 .16.14.25.42.25.33 0 .54-.13.62-.38q.03-.06.03-.09c0-.02-.01-.03-.03-.03-.04-.05-.1-.03-.19.06Zm57.96-.19c0-.04-.08-.06-.25-.06-.12 0-.19.08-.19.25.05.08.19.02.44-.19Zm32.12 0c0-.04-.09-.06-.25-.06-.13 0-.19.08-.19.25.04.08.19.02.44-.19Zm75.15.31c0-.16-.13-.25-.38-.25-.21 0-.31.02-.31.07 0 .12.16.2.5.25l.19-.07Zm22.92.13c0-.25-.04-.38-.12-.38-.13.04-.19.17-.19.38 0 .08.04.14.12.19.13.08.19.02.19-.19Zm-146.35.5c0-.09-.02-.13-.06-.13-.08 0-.12.04-.12.13 0 .04.04.06.12.06.04 0 .06-.02.06-.06Zm114.6.06.12.19c.04-.06.06-.12.06-.17 0-.06-.02-.1-.06-.14-.04-.05-.08-.05-.12 0v.12Zm32.25.13c0-.09-.04-.13-.12-.13-.09 0-.13.04-.13.13 0 .04.04.06.13.06.08 0 .12-.02.12-.06Zm-205 .12c0-.04-.04-.06-.12-.06-.04 0-.06.02-.06.06 0 .08.02.13.06.13q.06 0 .09-.04.03-.03.03-.09Zm59.03.19c0 .12.04.19.13.19.08 0 .12-.05.12-.13l-.06-.19c-.04-.04-.08-.04-.13 0-.04.04-.06.09-.06.13Zm166.16.37c.04-.01.07-.04.07-.08 0-.08-.09-.22-.26-.42-.04 0-.06.09-.06.25 0 .17.09.25.25.25Zm-166.91.32c.08 0 .12-.05.12-.13s-.04-.12-.12-.12c-.08 0-.13.04-.13.12 0 .08.05.13.13.13Zm82.33 0c.08 0 .13-.05.13-.13s-.05-.12-.13-.12q-.06 0-.09.03t-.03.09c0 .08.04.13.12.13Zm32.7.25c0-.3-.04-.44-.13-.44-.11 0-.16.07-.16.22 0 .07.01.17.04.28l.06.12c.13.13.19.07.19-.18Zm52.51.56c0 .12.02.19.06.19.1-.04.14-.1.14-.2 0-.04 0-.08-.01-.12-.04-.04-.09-.04-.13 0-.04 0-.06.04-.06.13Zm-154.26.44c.01-.03.02-.05.02-.07 0-.03-.03-.03-.09 0-.08.04-.18 0-.31-.12-.13-.13-.21-.09-.25.12-.03.07-.04.13-.04.18 0 .1.05.17.16.2.21 0 .38-.11.51-.31Zm32.11 0c.02-.03.02-.05.02-.07 0-.03-.03-.03-.08 0-.08.04-.19 0-.31-.12-.13-.13-.21-.09-.25.12-.03.07-.05.13-.05.18 0 .1.06.17.17.2.21 0 .38-.11.5-.31Zm70.14.06c0-.17-.08-.27-.25-.31-.08.04-.15.1-.19.18 0 .25.09.38.25.38.13 0 .19-.09.19-.25Zm-121.99 0c-.04-.13-.17-.19-.38-.19q-.17 0-.2.06v.02c0 .06.09.16.27.3l.18.06c.12 0 .17-.04.17-.11 0-.04-.01-.09-.04-.14Z" fill="#000" fill-rule="evenodd"/></svg><svg fill="none" viewBox="0 0 25.25 20.25" id="telegram" xmlns="http://www.w3.org/2000/svg"><path d="m.75 10.12 8.75 1.25 11.87 8.13L24.5.75.75 10.12ZM24.5.75l-15 10.62m0 0v6.88l4.06-4.1" stroke="#1D1D1D" stroke-width="1.5" stroke-linejoin="round" stroke-linecap="round"/></svg></svg>