<svg width="20.000000" height="20.000000" viewBox="0 0 20 20" fill="none" xmlns="http://www.w3.org/2000/svg" xmlns:xlink="http://www.w3.org/1999/xlink">
	<desc>
			Created with Pixso.
	</desc>
	<defs/>
	<path id="Vector" d="M10.6 9.5L14.49 13.39L13.64 14.24L9.39 10L9.39 4L10.6 4L10.6 9.5ZM10 20C4.47 20 0 15.52 0 10C0 4.47 4.47 0 10 0C15.52 0 20 4.47 20 10C20 15.52 15.52 20 10 20ZM10 18.79C12.33 18.79 14.57 17.87 16.22 16.22C17.87 14.57 18.79 12.33 18.79 10C18.79 7.66 17.87 5.42 16.22 3.77C14.57 2.12 12.33 1.19 10 1.19C7.66 1.19 5.42 2.12 3.77 3.77C2.12 5.42 1.19 7.66 1.19 10C1.19 12.33 2.12 14.57 3.77 16.22C5.42 17.87 7.66 18.79 10 18.79Z" fill="#B0B0B0" fill-opacity="1.000000" fill-rule="evenodd"/>
</svg>
