<svg width="40.581055" height="40.580078" viewBox="0 0 40.5811 40.5801" fill="none" xmlns="http://www.w3.org/2000/svg" xmlns:xlink="http://www.w3.org/1999/xlink">
	<desc>
			Created with Pixso.
	</desc>
	<defs/>
	<path id="Vector" d="M29.1 1.16L11.47 1.16C5.77 1.16 1.16 5.77 1.16 11.47L1.16 29.1C1.16 34.8 5.78 39.41 11.47 39.41L29.1 39.41C34.8 39.41 39.41 34.8 39.41 29.1L39.41 11.47C39.41 5.77 34.8 1.16 29.1 1.16Z" fill="#FFFFFF" fill-opacity="0" fill-rule="nonzero"/>
	<path id="Vector" d="M11.47 1.16C5.77 1.16 1.16 5.77 1.16 11.47L1.16 29.1C1.16 34.8 5.78 39.41 11.47 39.41L29.1 39.41C34.8 39.41 39.41 34.8 39.41 29.1L39.41 11.47C39.41 5.77 34.8 1.16 29.1 1.16L11.47 1.16Z" stroke="#FFFFFF" stroke-opacity="1.000000" stroke-width="2.333333"/>
	<path id="Vector" d="M20.29 29.51C15.19 29.51 11.06 25.38 11.06 20.28C11.06 15.18 15.19 11.05 20.29 11.05C25.39 11.05 29.52 15.18 29.52 20.28C29.52 25.38 25.39 29.51 20.29 29.51Z" stroke="#FFFFFF" stroke-opacity="1.000000" stroke-width="2.333333"/>
	<path id="Vector" d="M33.47 9.08C33.47 10.17 32.59 11.05 31.5 11.05C30.4 11.05 29.52 10.17 29.52 9.08C29.52 7.98 30.4 7.1 31.5 7.1C32.59 7.1 33.47 7.98 33.47 9.08Z" fill="#FFFFFF" fill-opacity="1.000000" fill-rule="evenodd"/>
</svg>
