<svg width="16.000000" height="20.000000" viewBox="0 0 16 20" fill="none" xmlns="http://www.w3.org/2000/svg" xmlns:xlink="http://www.w3.org/1999/xlink">
	<desc>
			Created with Pixso.
	</desc>
	<defs/>
	<path id="Vector" d="M8 10C6.89 10 6 9.1 6 8C6 6.89 6.89 6 8 6C9.1 6 10 6.89 10 8C10 9.1 9.1 10 8 10ZM14 8.2C14 4.56 11.35 2 8 2C4.64 2 2 4.56 2 8.2C2 10.54 3.94 13.64 8 17.33C12.05 13.64 14 10.54 14 8.2ZM8 0C12.2 0 16 3.22 16 8.2C16 11.52 13.33 15.45 8 20C2.66 15.45 0 11.52 0 8.2C0 3.22 3.8 0 8 0Z" fill="#B0B0B0" fill-opacity="1.000000" fill-rule="nonzero"/>
</svg>
