<svg width="39.668945" height="39.667969" viewBox="0 0 39.6689 39.668" fill="none" xmlns="http://www.w3.org/2000/svg" xmlns:xlink="http://www.w3.org/1999/xlink">
	<desc>
			Created with Pixso.
	</desc>
	<defs/>
	<path id="Vector" d="M6.41 20.51L10.8 16.12L13.79 13.13C14.42 12.5 14.88 11.71 15.1 10.84C15.32 9.97 15.3 9.06 15.05 8.21C14.61 6.76 14.31 5.27 14.16 3.77C14 2.28 12.69 1.16 11.18 1.16L4.2 1.16C2.4 1.16 1.02 2.71 1.18 4.5C2.77 22.53 17.13 36.89 35.16 38.48C36.95 38.64 38.5 37.26 38.5 35.47L38.5 29.24C38.5 26.96 37.38 25.66 35.89 25.5C34.38 25.34 32.9 25.05 31.45 24.61C30.59 24.36 29.68 24.34 28.82 24.56C27.95 24.78 27.16 25.24 26.53 25.87L23.54 28.86C18.15 25.94 13.72 21.51 10.8 16.12M19.15 33.25L23.54 28.86" stroke="#FFFFFF" stroke-opacity="1.000000" stroke-width="2.333333" stroke-linejoin="round" stroke-linecap="round"/>
</svg>
